<?xml version="1.0" standalone="no"?>
<!DOCTYPE svg PUBLIC "-//W3C//DTD SVG 20010904//EN"
 "http://www.w3.org/TR/2001/REC-SVG-20010904/DTD/svg10.dtd">
<svg version="1.0" xmlns="http://www.w3.org/2000/svg"
 width="1600.000000pt" height="1600.000000pt" viewBox="0 0 1600.000000 1600.000000"
 preserveAspectRatio="xMidYMid meet">
<metadata>
Created by potrace 1.14, written by Peter Selinger 2001-2017
</metadata>
<g transform="translate(0.000000,1600.000000) scale(0.100000,-0.100000)"
fill="#000000" stroke="none">
<path d="M7758 14194 c-2 -1 -39 -5 -83 -9 -44 -3 -91 -8 -105 -10 -14 -2 -50
-7 -80 -9 -30 -3 -64 -7 -75 -10 -11 -2 -40 -7 -65 -11 -68 -10 -93 -14 -120
-20 -14 -3 -41 -8 -60 -11 -19 -3 -48 -10 -65 -14 -16 -5 -41 -11 -55 -14
-134 -23 -543 -162 -726 -246 -533 -244 -955 -548 -1349 -971 -190 -204 -393
-479 -540 -734 -66 -113 -184 -348 -200 -395 -1 -3 -11 -27 -23 -54 -27 -58
-122 -312 -127 -335 -2 -9 -13 -45 -25 -81 -12 -36 -23 -72 -25 -80 -2 -8 -15
-60 -28 -115 -14 -55 -35 -147 -47 -205 -27 -141 -27 -137 -34 -200 -7 -57
-14 -105 -21 -162 -27 -196 -26 -685 0 -898 15 -116 22 -164 45 -295 16 -94
85 -377 111 -456 11 -35 22 -71 24 -79 7 -34 111 -302 152 -395 68 -152 183
-376 209 -406 8 -8 14 -18 14 -21 0 -10 99 -167 165 -263 71 -102 215 -284
302 -383 80 -91 299 -308 366 -362 31 -25 55 -49 53 -54 -1 -5 -247 -91 -546
-191 -300 -100 -560 -189 -577 -199 -58 -30 -65 -57 -64 -258 0 -98 3 -183 6
-188 3 -5 1 -11 -5 -15 -6 -4 -8 -10 -5 -15 4 -7 6 -51 4 -115 0 -11 0 -60 0
-110 0 -49 0 -847 -1 -1772 l-2 -1683 28 -29 c15 -16 46 -38 69 -49 42 -21
122 -48 122 -42 0 2 11 -3 24 -10 14 -7 36 -14 50 -16 14 -1 41 -7 59 -13 18
-5 35 -10 37 -10 3 -1 6 -1 8 -2 6 -2 74 -11 85 -12 6 0 12 -5 12 -11 0 -6 5
-4 10 4 8 13 10 13 10 -2 0 -21 16 -32 26 -17 4 8 3 9 -4 5 -7 -4 -12 -2 -12
4 0 6 10 8 23 5 12 -3 33 -7 47 -9 14 -3 25 -5 25 -6 0 -2 21 -4 105 -14 19
-2 35 -4 35 -6 0 -2 75 -11 117 -13 14 -1 24 -5 22 -8 -2 -3 14 -6 34 -7 20
-1 52 -2 70 -3 17 -1 32 -6 32 -12 0 -6 -3 -7 -6 -4 -9 9 -65 -63 -58 -74 3
-5 0 -9 -6 -9 -7 0 -9 8 -5 20 4 14 2 19 -7 17 -7 -2 -10 -2 -5 0 4 3 7 9 7
14 0 13 -32 7 -49 -9 -7 -7 -20 -11 -27 -8 -8 3 -11 0 -7 -10 3 -7 0 -14 -7
-14 -6 0 -8 5 -4 12 5 7 2 8 -7 3 -8 -5 -11 -5 -7 0 8 8 -8 45 -20 45 -4 0 -8
-9 -9 -19 -2 -24 43 -56 60 -43 27 21 47 21 67 0 10 -12 17 -26 14 -32 -3 -6
1 -3 9 6 8 10 17 15 21 11 4 -4 4 0 0 10 -7 20 1 22 20 4 12 -10 10 -14 -8
-24 -11 -7 -15 -12 -8 -13 6 0 21 9 33 21 23 23 39 18 19 -6 -7 -9 -10 -18 -7
-21 3 -3 10 4 17 15 6 12 20 21 31 21 11 0 17 5 14 10 -3 6 -1 10 4 10 14 0
14 -17 0 -25 -6 -5 -4 -12 8 -20 12 -9 22 -10 29 -4 7 5 16 9 20 8 24 -4 33 2
27 19 -7 18 -5 17 17 -12 10 -13 10 -17 3 -12 -7 4 -13 3 -13 -2 0 -5 10 -13
22 -19 17 -7 30 -5 56 10 18 11 36 16 40 12 4 -4 1 -10 -5 -12 -7 -3 -13 -9
-13 -15 0 -6 9 -3 20 7 18 16 61 33 47 18 -3 -2 2 -13 11 -23 12 -14 20 -16
34 -9 11 6 18 6 18 0 0 -5 -6 -12 -12 -14 -10 -4 -10 -6 -1 -6 15 -1 26 16 18
29 -4 7 -12 7 -25 0 -13 -7 -19 -6 -24 5 -5 14 7 20 29 15 14 -4 47 -8 67 -9
18 -1 14 -31 -4 -31 -5 0 -7 4 -4 9 3 5 -1 12 -9 15 -13 4 -14 2 -5 -14 13
-25 26 -25 39 -2 7 13 7 22 0 29 -6 6 -5 10 5 10 8 0 15 -3 14 -6 -2 -19 4
-22 19 -10 14 12 16 12 8 0 -6 -11 -4 -13 9 -8 11 5 15 3 10 -5 -5 -8 -2 -9
12 -4 23 10 29 10 74 0 32 -7 34 -6 21 9 -7 9 -17 15 -20 12 -4 -2 -8 2 -8 10
0 10 4 12 12 5 7 -5 16 -6 20 -2 5 4 5 2 2 -4 -11 -19 20 -39 37 -25 11 10 18
7 31 -11 l17 -23 -5 23 c-4 19 -3 21 9 11 7 -6 11 -15 8 -20 -3 -5 0 -9 5 -9
6 0 11 5 11 10 0 6 12 9 28 7 16 -2 32 2 39 12 10 14 11 13 6 -7 -3 -14 -11
-21 -19 -18 -8 3 -11 0 -7 -10 4 -10 9 -12 18 -4 7 6 17 10 21 9 23 -4 35 2
28 14 -6 8 -3 8 9 -1 18 -15 41 -7 31 10 -5 7 -2 8 7 2 8 -5 16 -9 19 -10 3 0
18 -4 34 -9 20 -5 31 -4 37 6 5 8 9 9 9 4 0 -6 -7 -20 -15 -31 -8 -12 -11 -25
-7 -29 4 -4 -3 -4 -15 -1 -25 8 -36 -4 -21 -24 8 -12 9 -12 4 2 -4 14 0 17 17
15 12 -1 22 3 22 8 0 16 31 55 38 49 3 -4 0 -13 -8 -21 -25 -24 -17 -34 8 -10
13 12 23 26 23 31 -1 5 5 10 12 11 7 2 8 1 3 -1 -6 -3 -7 -12 -4 -20 3 -7 -2
-17 -11 -20 -9 -3 -16 -10 -16 -16 0 -5 11 -1 24 9 13 10 22 21 20 24 -2 4 6
15 19 25 13 12 17 13 9 3 -6 -9 -8 -20 -4 -24 4 -5 1 -5 -7 0 -10 6 -12 4 -7
-4 5 -7 12 -9 19 -3 14 11 47 12 47 2 0 -4 -8 -14 -17 -21 -15 -12 -16 -12 -9
6 5 14 4 17 -4 9 -6 -6 -8 -18 -4 -27 5 -14 9 -13 27 8 24 26 82 43 74 22 -8
-20 21 -53 34 -40 8 8 8 16 0 30 -10 16 -11 15 -5 -7 6 -22 5 -23 -10 -11 -31
26 -1 41 67 32 4 -1 3 -10 -3 -22 -7 -11 -9 -24 -5 -27 3 -3 8 4 12 16 3 12
10 22 15 22 5 0 6 5 2 11 -5 8 -1 8 13 0 13 -6 23 -7 30 0 6 6 10 4 10 -6 0
-12 -6 -15 -25 -10 -16 4 -21 2 -17 -5 4 -6 17 -10 28 -9 40 3 47 -1 67 -34
22 -36 26 -32 8 8 -6 14 -15 25 -20 25 -5 0 -6 4 -3 10 3 6 -1 7 -9 4 -9 -3
-16 -2 -16 4 0 11 25 10 36 -1 11 -10 26 -8 19 2 -3 5 0 13 7 17 7 4 10 4 6
-1 -4 -4 -3 -14 3 -22 9 -9 8 -13 0 -13 -6 0 -11 -5 -11 -11 0 -8 5 -8 15 1
12 10 18 10 30 0 15 -13 20 -5 16 27 -1 6 3 14 9 18 6 3 7 0 4 -10 -5 -11 -2
-14 10 -9 9 3 16 1 16 -5 0 -6 -4 -11 -10 -11 -5 0 -10 -5 -10 -10 0 -6 8 -5
19 2 11 7 18 15 15 19 -2 4 1 11 7 15 8 4 9 3 5 -4 -4 -8 5 -10 31 -7 33 3 35
2 20 -9 -9 -7 -17 -17 -17 -21 0 -4 7 -2 15 5 13 10 19 10 35 -5 19 -17 21
-17 40 0 17 15 22 16 37 4 11 -9 14 -10 9 -1 -5 8 0 12 15 12 21 0 22 -1 4
-20 -10 -11 -13 -20 -8 -20 13 0 27 30 24 50 -2 10 2 9 13 -5 17 -23 21 -39 6
-30 -6 4 -7 -1 -3 -11 4 -11 2 -15 -4 -11 -6 4 -18 -4 -27 -18 -9 -14 -14 -25
-10 -25 4 0 0 -8 -7 -17 -11 -16 -11 -16 1 -5 8 7 15 16 16 20 2 19 17 41 24
37 7 -5 44 42 45 57 0 3 4 10 9 15 5 5 6 3 2 -4 -4 -8 -2 -13 5 -13 8 0 6 -6
-4 -18 -10 -10 -17 -22 -17 -26 0 -5 8 2 19 15 10 13 17 30 14 39 -3 10 -2 11
4 4 4 -7 27 -11 50 -9 40 2 42 1 31 -19 -6 -11 -11 -22 -10 -23 5 -8 -11 -32
-18 -28 -5 3 -11 1 -14 -4 -4 -5 2 -8 11 -7 9 2 19 8 21 15 3 9 8 9 20 -1 13
-11 14 -11 7 2 -14 23 -15 42 -2 37 7 -3 11 -9 10 -14 -1 -5 5 -10 13 -10 12
0 12 3 -1 17 -21 23 -19 36 5 36 11 0 20 -6 20 -14 0 -7 -5 -10 -12 -6 -7 4
-8 3 -4 -4 4 -6 14 -8 24 -5 15 6 15 5 3 -10 -7 -9 -12 -17 -10 -18 29 -6 52
-3 56 7 4 11 10 10 28 -2 21 -14 24 -14 33 2 5 9 7 25 5 34 -3 10 -1 20 4 23
9 6 12 -4 14 -48 1 -11 3 -14 6 -7 3 6 9 12 14 12 6 0 8 -4 5 -9 -3 -5 5 -16
19 -25 14 -9 25 -12 25 -7 0 5 -9 13 -20 16 -11 4 -18 10 -15 15 3 5 13 6 22
3 12 -5 14 -3 8 7 -6 10 -4 12 8 7 10 -4 16 -2 14 6 -3 17 39 21 46 3 3 -8 -1
-20 -10 -28 -14 -11 -15 -10 -9 10 4 12 4 22 -1 22 -11 0 -14 -38 -4 -44 13
-9 34 12 35 34 0 13 8 24 16 25 24 4 62 -14 55 -25 -3 -6 1 -7 10 -4 11 5 14
2 9 -9 -7 -19 -34 -11 -34 9 0 8 -4 14 -10 14 -15 0 0 -29 21 -41 15 -8 21 -6
25 6 6 14 8 14 25 -1 11 -9 19 -13 19 -8 0 5 -9 15 -20 22 -12 7 -18 17 -14
23 3 6 12 3 21 -8 13 -17 14 -17 9 0 -3 11 0 17 10 17 9 0 12 -5 8 -12 -5 -8
0 -7 11 2 17 14 18 13 12 -4 -8 -21 10 -49 26 -39 6 4 8 0 4 -10 -3 -10 -2
-17 4 -17 6 0 9 8 7 17 -2 10 -10 18 -17 18 -8 0 -16 6 -19 14 -3 8 0 11 6 7
6 -3 14 -1 18 5 4 8 3 9 -4 5 -7 -4 -12 -3 -12 3 0 6 13 9 30 7 16 -2 31 2 34
8 3 6 4 -1 3 -16 -2 -15 -6 -30 -10 -34 -10 -11 -9 -34 3 -34 5 0 7 6 4 13 -3
8 3 13 16 13 13 0 19 -5 16 -13 -3 -7 -1 -13 5 -13 6 0 9 8 7 18 -2 9 -11 16
-19 14 -9 -1 -16 5 -16 13 0 8 4 15 9 15 5 0 7 4 4 8 -3 5 2 9 10 9 8 0 13 -6
10 -13 -3 -7 6 -20 20 -28 13 -9 24 -12 24 -6 0 5 -5 10 -11 10 -5 0 -7 4 -4
10 4 6 17 4 36 -6 17 -8 36 -13 42 -10 7 2 4 5 -6 5 -10 1 -16 5 -12 10 3 5 0
13 -6 17 -8 4 -9 3 -5 -4 9 -15 1 -15 -24 -2 -13 7 -21 7 -25 0 -3 -5 -11 -10
-18 -10 -8 0 -8 3 1 12 6 6 35 12 64 13 43 1 53 4 52 18 -1 9 3 14 8 11 5 -3
7 -12 4 -20 -4 -11 1 -13 19 -10 27 5 32 -3 13 -22 -10 -10 -10 -15 2 -22 11
-7 19 -5 28 8 7 9 15 16 17 15 5 -3 5 -1 5 15 -1 4 -9 -3 -20 -16 -10 -12 -21
-18 -24 -14 -7 12 25 39 46 39 27 -1 29 -25 4 -44 -20 -16 -21 -20 -8 -32 13
-12 14 -12 10 0 -2 7 4 23 14 33 10 11 17 25 14 31 -2 7 24 11 80 11 81 -1 89
-4 85 -33 -1 -6 3 -14 9 -18 6 -4 8 6 6 24 -2 22 1 31 11 31 9 0 11 -5 7 -12
-5 -9 -2 -9 9 1 10 8 17 9 17 3 0 -6 -8 -15 -17 -21 -16 -8 -14 -10 7 -9 14 1
30 5 37 10 7 6 17 1 27 -13 8 -13 18 -20 21 -18 2 3 -5 16 -16 28 -15 16 -24
20 -32 12 -17 -17 -31 -13 -17 4 8 10 21 13 33 9 14 -4 17 -3 12 6 -5 9 -4 11
4 6 19 -12 61 -14 61 -4 0 5 5 6 10 3 20 -13 9 -22 -24 -20 -28 2 -33 0 -28
-13 4 -10 7 -12 10 -4 5 15 23 16 20 1 -2 -6 4 -14 12 -16 13 -4 13 -3 0 6 -8
6 -13 11 -10 12 3 0 13 2 23 4 13 2 17 -1 13 -11 -3 -8 1 -17 9 -20 8 -4 13
-9 10 -13 -2 -4 2 -8 10 -8 8 0 15 4 15 9 0 4 -5 8 -12 8 -6 0 -4 8 7 20 9 10
20 19 24 18 18 -2 31 3 31 13 0 8 -6 7 -17 -2 -15 -11 -16 -11 -6 1 7 7 24 14
39 15 l26 1 -28 -25 c-16 -14 -21 -22 -12 -18 10 3 20 2 23 -3 3 -5 -4 -12
-16 -15 -11 -4 -18 -9 -16 -12 3 -2 15 1 27 7 16 9 19 14 10 25 -9 10 -6 15
10 20 11 3 18 12 14 18 -3 7 1 4 9 -6 15 -18 28 -23 26 -9 -1 4 -1 14 0 22 1
12 3 12 11 -2 13 -22 3 -45 -23 -52 -12 -3 -19 -8 -15 -11 8 -9 58 17 52 26
-3 5 0 9 6 9 6 0 8 5 5 10 -3 6 -1 10 4 10 6 0 11 -4 11 -10 0 -5 4 -10 10
-10 5 0 7 6 4 13 -3 8 3 20 13 27 15 12 16 12 6 0 -7 -8 -13 -17 -13 -21 0 -9
41 1 59 15 11 8 13 8 7 -2 -6 -9 7 -12 53 -10 34 1 61 7 61 13 0 7 3 7 8 0 10
-15 59 -18 67 -5 5 8 10 9 14 2 4 -6 19 -13 34 -16 14 -2 31 -7 36 -10 12 -8
41 4 41 16 0 6 -6 6 -14 -2 -11 -9 -19 -9 -33 0 -17 11 -17 11 0 6 11 -3 24
-3 30 1 17 10 37 13 37 4 0 -4 9 -7 20 -8 11 -1 18 2 16 6 -3 4 6 7 20 7 24 0
28 -6 25 -37 -1 -8 11 -21 26 -27 28 -12 28 -12 6 4 -13 9 -23 21 -23 26 0 6
7 5 15 -2 9 -8 15 -8 15 -2 0 6 -4 12 -9 14 -4 2 -5 12 0 23 6 17 8 17 8 3 1
-24 13 -23 29 2 7 11 18 20 25 20 6 0 4 -5 -5 -11 -22 -12 -23 -29 -3 -29 12
0 13 -5 4 -26 -5 -15 -7 -29 -5 -32 3 -2 8 7 12 22 6 24 8 25 27 11 12 -8 26
-15 32 -15 5 0 -5 9 -22 20 -18 11 -33 24 -33 30 0 15 11 12 27 -7 12 -15 14
-15 10 -2 -4 13 3 16 36 16 37 0 56 -9 57 -28 0 -3 -7 -6 -15 -6 -9 0 -14 5
-12 12 3 6 -4 11 -14 11 -17 0 -17 -2 -2 -18 20 -23 6 -24 -19 -1 -10 9 -18
12 -18 7 0 -5 9 -15 21 -22 16 -10 24 -10 35 -1 14 11 15 10 18 -13 0 -7 10
-13 21 -13 11 0 24 -4 28 -10 5 -6 7 -4 4 5 -2 9 -13 14 -25 12 -24 -3 -25 24
-1 39 12 7 11 9 -2 9 -9 0 -16 6 -16 13 0 13 35 16 55 3 7 -4 12 -4 12 1 0 4
26 8 58 7 31 0 63 4 70 9 6 5 12 6 12 1 0 -5 14 -9 30 -9 17 -1 30 2 30 5 0 4
7 7 15 7 8 0 12 -3 10 -7 -2 -4 7 -13 20 -20 13 -7 22 -17 19 -21 -3 -5 2 -6
12 -2 14 5 13 8 -7 18 -24 13 -34 41 -18 51 5 3 9 2 8 -3 -4 -22 2 -34 14 -26
6 4 17 8 22 8 6 1 9 6 8 12 -2 8 7 7 25 -3 15 -7 27 -17 27 -21 0 -5 4 -14 8
-20 6 -9 1 -13 -15 -14 -13 0 -17 -3 -10 -6 7 -3 20 -2 28 1 14 5 14 9 3 23
-12 15 -12 16 4 10 11 -4 16 -3 12 3 -3 6 -1 10 5 10 6 0 9 4 5 9 -7 13 45 3
62 -11 7 -6 13 -7 13 -2 0 4 6 0 13 -10 8 -11 20 -16 28 -13 10 4 10 6 -3 6
-11 1 -15 6 -12 16 4 10 0 13 -15 10 -22 -4 -29 9 -11 20 6 3 10 0 10 -7 0 -9
3 -9 10 2 7 11 10 11 10 2 0 -8 5 -10 13 -5 19 12 36 12 44 1 3 -7 1 -8 -5 -4
-7 4 -10 -2 -9 -14 1 -20 2 -20 20 4 10 15 23 24 28 21 5 -4 0 -16 -11 -27
-11 -12 -18 -24 -15 -26 3 -3 16 8 30 24 24 27 75 44 75 23 0 -5 5 -9 11 -9 5
0 7 5 3 12 -5 7 -3 8 6 3 10 -6 12 -4 6 10 -5 13 -3 15 6 8 20 -14 68 -15 68
0 0 8 4 7 11 -3 8 -12 12 -12 16 -2 3 9 9 10 17 3 9 -8 13 -6 13 7 0 9 -3 22
-8 27 -5 7 -1 11 10 11 15 0 17 -5 11 -21 -5 -12 -4 -28 1 -36 14 -22 11 -33
-6 -19 -9 7 -15 8 -15 2 0 -13 28 -24 34 -13 3 4 4 17 2 28 -4 16 1 20 22 19
15 0 26 4 25 10 -1 6 4 11 12 11 8 0 12 -4 9 -9 -3 -4 1 -8 10 -8 8 0 22 -3
32 -7 10 -4 15 -2 11 3 -4 7 6 9 25 6 19 -3 29 -1 25 6 -4 5 0 15 7 21 10 9
16 9 21 1 4 -6 3 -10 -2 -9 -20 3 -25 -2 -14 -15 10 -11 7 -17 -11 -30 -12 -9
-17 -16 -11 -16 6 0 20 11 31 25 11 13 22 21 26 18 3 -3 6 -1 6 5 0 7 5 12 11
12 5 0 7 -5 4 -11 -4 -6 -1 -9 6 -8 8 2 24 -2 37 -9 12 -7 22 -9 22 -5 0 4 5
1 11 -7 8 -12 10 -12 7 -1 -2 8 -11 15 -20 17 -9 1 -27 12 -40 24 -19 18 -20
20 -4 14 15 -6 17 -4 11 6 -5 9 -4 11 4 6 6 -4 9 -12 6 -17 -11 -17 27 -23 40
-6 13 18 31 24 20 8 -3 -6 3 -9 12 -9 10 0 30 -2 46 -5 15 -3 27 -1 27 5 0 5
-7 8 -15 5 -8 -4 -17 -1 -21 5 -4 7 -3 8 4 4 7 -4 12 -3 12 3 0 20 27 0 44
-32 9 -18 14 -23 10 -12 -3 11 -7 26 -8 33 -1 8 -9 18 -17 23 -8 5 -9 9 -4 9
17 -1 45 -27 37 -35 -4 -4 0 -6 8 -3 8 3 14 12 12 21 -1 8 3 19 9 23 9 5 10 2
6 -9 -4 -10 -1 -17 6 -17 8 0 7 -4 -3 -11 -13 -9 -13 -10 0 -6 8 2 15 12 15
22 0 10 6 20 13 23 6 2 9 9 5 15 -4 7 1 6 10 -2 9 -7 17 -20 17 -27 0 -8 5
-14 10 -14 6 0 10 7 10 15 0 8 5 15 10 15 7 0 7 -6 0 -19 -7 -14 -7 -22 2 -27
7 -4 8 -3 4 4 -4 7 -3 12 3 12 5 0 12 8 14 18 4 16 5 16 6 0 0 -10 6 -18 12
-18 5 0 7 6 3 13 -5 8 -2 8 9 -2 9 -7 17 -9 17 -3 0 5 -10 17 -22 25 -19 13
-20 18 -9 26 18 12 38 4 46 -17 5 -14 4 -14 -13 1 -10 9 -22 14 -25 10 -12
-11 31 -34 68 -35 20 -1 41 4 47 10 17 17 33 15 19 -2 -9 -11 -9 -16 0 -22 7
-4 9 -3 5 4 -3 6 3 16 15 23 17 9 23 8 30 -2 7 -11 9 -11 9 -1 0 7 5 10 10 7
6 -4 8 -10 5 -15 -3 -5 0 -12 7 -16 7 -4 10 -4 6 1 -12 13 11 45 32 45 22 0
35 16 20 25 -5 3 -10 2 -10 -4 0 -5 -9 -8 -20 -6 -13 2 -20 -2 -20 -11 0 -8
-5 -14 -11 -14 -5 0 -7 5 -3 12 5 7 2 9 -7 4 -8 -4 -6 -1 4 7 11 9 14 18 8 21
-5 4 -12 2 -15 -2 -3 -5 -17 -8 -31 -6 -16 1 -28 -3 -32 -13 -4 -11 -11 -7
-25 16 -11 17 -24 28 -29 25 -14 -8 -11 -26 4 -18 6 4 9 4 5 -1 -4 -4 0 -13 9
-20 9 -7 13 -17 9 -23 -9 -15 -26 -16 -26 -1 0 5 5 7 10 4 6 -3 10 -2 10 3 0
8 -22 22 -35 22 -2 0 -2 -9 0 -21 4 -17 2 -19 -11 -8 -10 8 -12 15 -4 23 5 5
10 17 10 25 0 11 -4 10 -15 -5 -14 -17 -16 -18 -28 -3 -10 14 -14 14 -25 3 -9
-10 -19 -11 -30 -5 -9 4 -24 6 -32 4 -12 -4 -12 -3 -1 5 11 8 11 10 0 15 -8 2
10 4 39 2 28 -1 52 2 52 6 0 4 9 6 20 4 11 -2 22 0 25 5 3 5 15 7 27 5 12 -3
26 -1 32 3 6 5 30 8 54 7 23 0 42 2 42 5 0 3 12 5 28 5 15 -1 32 1 37 4 17 9
60 13 52 5 -4 -4 -18 -9 -30 -11 -12 -2 -24 -8 -25 -14 -3 -6 -10 -5 -20 3
-13 11 -14 11 -8 -1 6 -10 4 -12 -11 -7 -13 4 -25 0 -34 -11 -12 -14 -12 -16
0 -8 10 6 12 4 6 -5 -5 -9 -4 -11 4 -6 6 4 9 12 6 17 -4 5 -1 9 4 9 10 0 15
-14 12 -32 0 -5 4 -8 10 -8 6 0 8 8 5 18 -6 16 -5 16 7 0 12 -15 14 -15 25 0
7 9 10 11 6 3 -5 -10 -3 -12 7 -7 8 4 6 1 -4 -7 -14 -11 -15 -16 -5 -20 11 -4
11 -6 0 -6 -7 -1 -10 -6 -7 -12 5 -6 12 -4 22 8 8 10 12 13 9 6 -4 -6 -2 -14
4 -18 6 -4 7 -11 4 -17 -4 -7 -2 -8 5 -4 9 6 9 11 0 22 -9 11 -8 14 5 14 9 0
16 4 16 9 0 5 8 8 18 6 27 -5 28 -6 10 -13 -17 -7 -17 -8 1 -19 15 -10 18 -9
17 5 -1 10 6 16 19 16 11 0 23 5 27 11 4 6 23 11 43 10 27 -2 33 1 25 10 -8 9
-6 14 6 19 23 9 31 7 15 -3 -9 -6 -10 -11 -2 -15 10 -6 15 6 12 27 0 4 3 7 7
7 17 0 21 -13 10 -34 -9 -17 -6 -16 16 6 31 30 26 53 -9 44 -24 -6 -50 15 -37
29 4 5 1 5 -6 1 -7 -4 -10 -11 -8 -15 3 -4 -7 -8 -22 -8 -20 0 -28 6 -29 19
-2 17 0 18 14 6 14 -11 15 -11 8 1 -6 11 -4 13 7 8 9 -3 21 0 27 6 9 9 13 6
17 -11 4 -12 10 -22 16 -22 5 0 4 9 -2 20 -6 11 -9 20 -8 21 2 1 14 2 28 4 14
2 55 12 93 23 37 11 67 17 67 13 0 -3 4 0 9 7 5 8 25 14 45 15 19 0 31 4 24 8
-7 5 2 13 23 22 19 8 43 24 54 37 20 22 20 36 20 1496 0 811 4 1474 8 1474 5
0 5 6 0 13 -11 17 -11 159 0 175 6 7 6 12 0 12 -12 0 -11 93 2 103 7 4 7 9 0
15 -14 10 -17 39 -5 47 7 4 7 13 -1 27 -9 16 -8 23 2 29 9 6 10 12 4 17 -14
10 -17 39 -5 47 7 4 7 13 -1 27 -9 16 -8 23 2 29 9 6 10 12 4 17 -15 11 -17
33 -4 48 6 8 7 14 2 14 -5 0 -9 9 -10 20 -1 11 2 18 6 16 4 -3 8 1 8 9 0 8 -4
15 -8 15 -8 0 -5 42 5 58 3 6 2 13 -4 17 -5 3 -10 11 -10 16 0 6 5 7 12 3 7
-5 8 -3 2 7 -13 21 -14 39 -1 39 8 0 7 4 -1 12 -15 15 -16 31 0 22 7 -4 8 -3
4 4 -13 21 -15 54 -6 73 7 12 7 20 0 24 -5 3 -10 11 -10 16 0 6 4 8 8 5 10 -6
9 30 -1 40 -12 12 -8 26 5 18 7 -5 8 -3 3 6 -4 7 -9 36 -10 64 -2 61 -17 88
-64 114 -26 14 -665 233 -721 247 -3 1 -12 4 -20 7 -8 4 -100 34 -203 69
l-188 62 23 21 c13 12 41 36 63 55 105 88 327 316 430 441 20 25 46 56 57 68
10 13 46 60 79 105 33 45 67 90 75 100 8 9 14 22 14 27 0 6 5 10 10 10 6 0 10
6 10 13 1 6 14 27 30 46 16 19 27 38 24 43 -3 4 0 8 6 8 6 0 15 10 20 23 5 12
25 47 44 77 37 57 79 131 81 140 1 3 11 21 23 40 12 19 22 39 22 43 0 5 9 22
21 38 11 16 17 29 12 29 -4 0 -3 4 2 8 6 4 23 36 39 72 16 36 37 80 47 98 11
18 15 30 9 27 -6 -3 -1 9 9 27 11 18 27 57 36 86 10 28 20 52 24 52 4 0 8 12
9 27 1 15 8 30 15 35 6 4 9 8 5 8 -4 0 1 20 12 45 11 25 19 46 19 48 -1 1 5
22 12 47 7 25 12 48 11 53 -1 4 3 7 9 7 5 0 7 5 4 10 -4 6 -2 16 3 23 12 15
29 81 34 130 1 9 5 17 8 17 5 0 7 10 12 65 1 14 5 25 8 25 7 0 10 18 11 58 1
12 5 22 10 22 5 0 8 3 8 8 -1 4 -1 9 0 12 1 3 4 25 7 50 5 46 11 83 14 88 2 1
3 6 4 11 0 5 4 13 8 16 4 4 3 16 -3 26 -6 12 -6 19 0 19 5 0 8 8 6 18 -1 9 2
23 8 30 6 8 6 12 -2 12 -7 0 -8 8 -1 24 5 13 6 27 3 30 -4 3 0 6 8 6 11 0 11
2 -1 10 -11 7 -11 10 -2 10 7 0 10 5 7 10 -4 6 -1 18 7 27 8 11 8 14 1 10 -8
-5 -11 0 -10 13 1 11 4 20 7 20 3 0 7 24 7 53 3 135 7 177 17 177 7 0 8 3 1 8
-12 8 -15 63 -3 56 4 -3 8 -1 8 5 0 5 -5 11 -11 13 -9 3 -9 10 0 26 6 12 8 22
3 22 -5 0 -9 7 -9 15 0 8 4 15 8 15 9 0 6 33 -5 41 -4 4 -3 15 2 26 6 11 7 25
2 33 -5 8 -5 21 1 31 6 11 5 20 -1 24 -5 3 -10 11 -10 16 0 6 5 7 11 3 8 -5 8
-1 0 14 -6 11 -9 36 -7 56 1 20 -1 39 -6 42 -4 3 -4 14 2 24 7 13 7 21 0 25
-8 5 -7 12 2 23 10 13 10 14 0 8 -9 -6 -11 -1 -8 18 3 15 0 26 -6 26 -6 0 -6
6 2 15 7 8 8 15 3 15 -5 0 -9 9 -10 20 -1 13 2 18 10 13 7 -3 4 3 -5 14 -20
21 -24 38 -8 28 7 -4 7 3 0 20 -6 15 -8 31 -4 36 3 5 -1 9 -8 9 -9 0 -9 3 2
10 8 5 10 10 5 10 -6 0 -11 8 -12 18 -2 61 -8 92 -18 92 -5 0 -3 5 5 10 8 5
10 10 4 10 -11 0 -11 2 -15 58 -1 17 -7 32 -13 32 -6 0 -4 5 4 10 12 8 12 10
1 10 -9 0 -12 10 -9 34 2 20 0 32 -6 29 -5 -4 -7 3 -4 15 4 12 2 20 -3 16 -8
-5 -13 20 -13 68 0 9 -4 14 -9 11 -6 -4 -8 0 -4 9 3 9 0 21 -6 27 -6 6 -7 11
-3 11 5 0 2 8 -5 17 -12 15 -12 16 1 8 13 -8 13 -6 2 8 -8 9 -10 22 -6 28 5 8
3 9 -6 4 -10 -6 -12 -4 -7 8 3 9 2 19 -3 22 -15 9 -12 27 3 19 6 -4 4 2 -6 13
-9 11 -14 23 -10 26 3 4 1 7 -6 7 -9 0 -12 10 -9 29 3 23 1 28 -11 23 -14 -5
-14 -3 -2 11 7 9 10 17 5 17 -5 0 -14 11 -21 25 -8 19 -8 23 0 18 7 -3 3 3 -7
15 -13 15 -15 22 -6 22 10 0 9 5 -3 18 -10 10 -17 28 -17 40 0 12 -5 22 -11
22 -6 0 -8 7 -5 15 3 9 -1 18 -8 21 -8 3 -13 13 -12 22 2 9 -4 23 -13 30 -9 8
-10 11 -4 7 9 -4 11 -1 7 9 -3 9 -10 16 -15 16 -4 0 -6 6 -3 14 3 8 1 17 -5
21 -6 3 -11 15 -11 26 0 10 -4 19 -10 19 -5 0 -10 9 -10 20 0 11 -5 20 -11 20
-5 0 -8 4 -4 9 3 5 1 12 -5 16 -6 4 -8 11 -5 16 4 5 3 9 -2 9 -4 0 -14 15 -21
33 -8 17 -20 44 -28 60 -8 15 -12 27 -7 27 4 0 3 4 -4 8 -6 4 -13 14 -15 22
-2 8 -11 23 -20 34 -10 11 -18 28 -18 38 0 10 -4 18 -9 18 -5 0 -14 12 -20 28
-6 15 -22 45 -36 67 -14 22 -28 48 -32 58 -3 9 -9 17 -14 17 -5 0 -9 6 -9 13
0 7 -9 23 -19 34 -11 12 -17 24 -14 27 4 3 1 6 -6 6 -7 0 -9 5 -6 10 3 6 2 10
-3 10 -5 0 -15 12 -23 28 -8 15 -18 32 -24 39 -5 7 -16 19 -23 28 -7 8 -10 15
-6 15 4 0 -3 8 -14 19 -12 10 -19 21 -15 25 3 3 1 6 -6 6 -7 0 -10 4 -7 8 3 5
-4 14 -14 22 -10 8 -17 17 -14 22 3 4 -3 8 -12 8 -10 0 -15 3 -11 6 3 4 -1 13
-9 21 -8 8 -12 19 -9 24 4 5 0 9 -7 9 -7 0 -24 16 -37 35 -22 32 -52 69 -86
106 -8 9 -15 18 -15 22 0 11 -49 55 -54 49 -3 -3 -6 1 -6 9 0 8 -9 21 -20 29
-11 8 -20 20 -20 27 0 7 -7 13 -15 13 -8 0 -15 4 -15 9 0 12 -189 201 -202
201 -5 0 -6 5 -3 10 3 6 1 10 -5 10 -6 0 -29 18 -51 40 -21 21 -39 37 -39 35
0 -2 -10 6 -23 18 -12 12 -42 38 -66 57 -25 19 -50 41 -58 48 -7 7 -13 11 -13
8 0 -6 -38 24 -72 57 -10 9 -20 16 -22 15 -3 -2 -15 6 -28 17 -13 11 -39 31
-58 45 -19 13 -41 30 -48 37 -6 6 -21 15 -32 18 -11 3 -20 11 -20 16 0 5 -5 9
-11 9 -6 0 -30 14 -54 30 -24 17 -46 30 -48 30 -9 0 -142 83 -148 92 -3 5 -10
9 -15 9 -5 -1 -16 4 -25 11 -8 7 -20 14 -25 15 -5 1 -75 33 -156 72 -81 39
-151 72 -155 73 -5 1 -30 11 -58 23 -27 12 -79 32 -115 44 -36 12 -74 26 -85
31 -30 14 -165 60 -205 70 -54 13 -323 81 -345 86 -11 3 -36 7 -55 10 -19 2
-62 9 -95 14 -33 5 -78 12 -100 15 -22 3 -49 7 -60 9 -40 7 -122 16 -205 22
-87 6 -558 13 -562 8z m3648 -12036 c5 -8 2 -9 -10 -5 -10 4 -19 1 -23 -8 -4
-12 -9 -13 -19 -4 -7 6 -18 8 -24 4 -5 -3 -10 -2 -10 4 0 5 15 12 33 14 17 2
35 5 39 5 4 1 10 -3 14 -10z m-73 -25 c14 1 22 -4 22 -13 0 -8 -4 -14 -10 -13
-29 5 -41 9 -48 18 -5 6 -6 2 -3 -8 4 -13 2 -16 -7 -11 -6 4 -8 3 -4 -1 12
-14 38 -15 30 -2 -4 7 0 6 10 -1 9 -8 22 -10 28 -6 7 4 9 3 6 -2 -3 -6 4 -11
16 -11 19 -2 20 -1 5 8 -14 8 -15 14 -6 34 9 19 15 22 29 15 10 -6 25 -7 34
-4 12 5 15 0 13 -24 -2 -24 -6 -29 -22 -26 -11 2 -25 -1 -32 -7 -21 -17 -55
-19 -61 -3 -5 13 -7 13 -14 2 -7 -10 -9 -10 -9 2 0 13 -2 13 -9 1 -5 -8 -19
-15 -31 -16 -14 -1 -17 2 -11 8 16 16 -8 41 -24 27 -10 -8 -15 -8 -21 1 -4 7
-3 9 4 5 6 -3 13 -2 17 4 4 6 11 8 16 5 5 -4 9 0 9 7 0 10 2 10 8 0 6 -9 12
-5 23 14 10 20 15 23 17 11 2 -10 12 -16 25 -14z m146 -14 c-16 -10 -23 -4
-14 10 3 6 11 8 17 5 6 -4 5 -9 -3 -15z m61 1 c0 -5 -4 -10 -9 -10 -6 0 -13 5
-16 10 -3 6 1 10 9 10 9 0 16 -4 16 -10z m-6316 -42 c-3 -4 -9 -8 -15 -8 -5 0
-9 4 -9 8 0 5 7 9 15 9 8 0 12 -4 9 -9z m5567 -12 c5 3 7 9 5 13 -3 4 4 8 16
8 20 2 20 2 -1 -16 -11 -10 -17 -22 -13 -27 4 -4 -1 -2 -10 5 -10 7 -17 21
-17 30 1 13 2 13 6 -2 2 -9 9 -15 14 -11z m69 14 c0 -5 -4 -10 -10 -10 -5 0
-10 5 -10 10 0 6 5 10 10 10 6 0 10 -4 10 -10z m-5629 -27 c-5 -10 -9 -22 -9
-28 0 -5 -6 -11 -14 -13 -9 -2 -8 0 2 7 8 6 11 11 7 11 -8 0 10 40 19 40 2 0
0 -8 -5 -17z m5601 -1 c-7 -2 -10 -8 -6 -13 3 -5 0 -9 -5 -9 -13 0 -13 3 -5
24 3 9 11 13 17 9 8 -5 7 -8 -1 -11z m-5641 -3 c-19 -8 -21 -12 -11 -24 9 -10
9 -15 1 -15 -6 0 -11 5 -11 11 0 5 -6 7 -12 3 -7 -4 -4 2 6 14 11 12 26 22 35
21 10 0 7 -4 -8 -10z m72 4 c-7 -2 -13 -12 -13 -20 0 -9 -3 -14 -6 -10 -10 10
4 37 18 36 10 0 10 -2 1 -6z m18 -20 c-12 -20 -14 -14 -5 12 4 9 9 14 11 11 3
-2 0 -13 -6 -23z m5469 15 c0 -6 3 -8 7 -5 9 9 34 -13 27 -24 -9 -15 -21 -10
-38 16 -9 14 -12 25 -6 25 5 0 10 -5 10 -12z m128 0 c9 -9 12 -9 12 0 0 7 5
12 11 12 5 0 8 -4 5 -9 -4 -5 0 -11 6 -14 7 -3 2 -4 -12 -4 -23 1 -64 27 -43
27 5 0 14 -5 21 -12z m255 -1 c6 -15 -27 -17 -40 -2 -5 4 -2 5 5 1 6 -4 12 -2
12 3 0 15 17 14 23 -2z m-5794 -20 c0 -9 -2 -8 -6 1 -2 6 -10 9 -15 6 -7 -4
-8 -2 -4 5 9 13 26 5 25 -12z m5364 6 c-6 -16 -5 -16 10 -4 9 7 17 9 17 3 0
-12 -26 -23 -34 -15 -10 10 -7 33 4 33 5 0 6 -8 3 -17z m-18 -25 c5 4 5 1 1
-5 -10 -18 -26 -16 -26 2 0 9 -6 12 -15 9 -16 -6 -21 7 -8 20 4 4 15 -2 24
-13 9 -11 20 -17 24 -13z m-5380 1 c-4 -5 -12 -9 -18 -8 -9 0 -8 2 1 6 6 2 9
10 6 15 -4 7 -2 8 5 4 6 -4 9 -12 6 -17z m65 11 c0 -5 -4 -10 -10 -10 -5 0
-10 5 -10 10 0 6 5 10 10 10 6 0 10 -4 10 -10z m54 -2 c-5 -8 -1 -9 12 -4 14
5 16 4 7 -5 -13 -13 -37 -3 -28 12 4 5 8 9 11 9 3 0 2 -5 -2 -12z m500 4 c3
-5 -1 -9 -9 -9 -8 0 -12 4 -9 9 3 4 7 8 9 8 2 0 6 -4 9 -8z m50 0 c2 -4 -4 -8
-14 -8 -10 0 -16 4 -14 8 3 4 9 8 14 8 5 0 11 -4 14 -8z m4051 -2 c3 -5 1 -10
-4 -10 -6 0 -11 5 -11 10 0 6 2 10 4 10 3 0 8 -4 11 -10z m82 -5 c0 -8 -4 -12
-9 -9 -5 3 -6 10 -3 15 9 13 12 11 12 -6z m465 2 c-14 -6 -26 -7 -32 -1 -5 5
4 9 23 10 30 1 30 1 9 -9z m-5182 -27 c-5 -3 -5 -11 0 -20 8 -12 10 -12 16 3
8 21 21 22 21 2 0 -8 -4 -12 -8 -10 -4 3 -9 -2 -13 -10 -8 -22 -33 -8 -30 18
1 12 3 29 3 37 1 13 2 13 11 0 5 -8 5 -17 0 -20z m95 20 c3 -6 -1 -7 -9 -4
-18 7 -21 14 -7 14 6 0 13 -4 16 -10z m300 1 c-14 -14 -75 -23 -75 -12 0 5 8
8 18 7 9 -2 26 0 37 5 27 11 31 11 20 0z m41 -17 c1 -9 0 -13 -4 -10 -3 4 -7
14 -8 22 -1 9 0 13 4 10 3 -4 7 -14 8 -22z m256 12 c7 4 8 2 4 -5 -9 -13 -26
-5 -25 12 0 9 2 8 6 -1 2 -6 10 -9 15 -6z m3880 2 c-14 -14 -44 -20 -36 -7 3
5 9 7 14 4 5 -3 11 -1 15 5 3 5 9 10 13 10 3 0 1 -5 -6 -12z m184 -3 c-1 -8
-5 -17 -8 -21 -5 -4 -4 16 1 34 3 9 9 -1 7 -13z m104 -6 c0 -5 -4 -9 -8 -9 -5
0 -9 7 -9 15 0 8 4 12 9 9 4 -3 8 -9 8 -15z m77 15 c-3 -4 -2 -15 4 -25 7 -14
6 -17 -5 -13 -8 3 -13 13 -11 22 5 23 4 22 12 22 3 0 3 -3 0 -6z m78 -24 c1
-30 -7 -32 -11 -3 -2 14 3 33 9 33 1 0 2 -13 2 -30z m47 7 c3 -14 0 -24 -7
-24 -7 0 -10 10 -7 24 2 13 6 23 7 23 1 0 5 -10 7 -23z m164 -4 c-4 -4 -12 -1
-19 7 -9 10 -9 11 1 6 7 -4 12 -2 13 6 0 11 2 11 6 0 3 -7 2 -16 -1 -19z
m-5006 7 c0 -5 -4 -10 -10 -10 -5 0 -10 5 -10 10 0 6 5 10 10 10 6 0 10 -4 10
-10z m655 0 c3 -5 1 -10 -4 -10 -6 0 -11 5 -11 10 0 6 2 10 4 10 3 0 8 -4 11
-10z m95 6 c0 -2 -8 -10 -17 -17 -16 -13 -17 -12 -4 4 13 16 21 21 21 13z
m3206 -22 c1 -9 0 -13 -4 -10 -3 4 -7 14 -8 22 -1 9 0 13 4 10 3 -4 7 -14 8
-22z m49 16 c-3 -5 -12 -10 -18 -10 -7 0 -6 4 3 10 19 12 23 12 15 0z m471
-26 c0 -13 -2 -22 -5 -19 -3 3 -6 17 -7 31 0 13 2 22 5 19 3 -3 6 -17 7 -31z
m438 25 c-2 -4 2 -10 8 -12 8 -4 9 -6 2 -6 -6 -1 -17 5 -23 12 -8 10 -7 14 4
14 8 0 12 -4 9 -8z m-4991 -13 c4 -10 0 -12 -15 -8 -15 4 -17 7 -6 13 17 11
15 11 21 -5z m1033 -1 c-1 -8 -5 -17 -8 -21 -5 -4 -4 16 1 34 3 9 9 -1 7 -13z
m-1266 -10 c-7 -8 -17 -12 -22 -9 -6 4 -5 10 3 15 22 14 33 10 19 -6z m754 7
c2 -4 -4 -8 -14 -8 -10 0 -16 4 -14 8 3 4 9 8 14 8 5 0 11 -4 14 -8z m154 -12
c-7 -10 -14 -17 -17 -15 -4 4 18 35 25 35 2 0 -1 -9 -8 -20z m238 -5 c1 -8 -1
-17 -5 -19 -4 -3 -7 6 -7 19 0 25 8 25 12 0z m2918 16 c3 -5 -2 -15 -12 -22
-15 -12 -16 -12 -5 2 7 9 10 19 6 22 -3 4 -4 7 0 7 3 0 8 -4 11 -9z m807 -4
c-6 -8 -7 -18 -3 -22 4 -5 1 -5 -6 -1 -10 6 -10 11 -1 22 6 8 14 14 16 14 3 0
0 -6 -6 -13z m-4428 -12 c-3 -9 -8 -14 -10 -11 -3 3 -2 9 2 15 9 16 15 13 8
-4z m373 -7 c12 -14 13 -18 3 -10 -9 6 -18 10 -21 7 -2 -3 -5 2 -5 10 0 19 0
19 23 -7z m157 8 c11 1 16 0 12 -4 -12 -12 -52 -9 -52 4 0 9 5 10 11 5 6 -5
19 -7 29 -5z m234 -1 c0 -8 -4 -15 -9 -15 -10 0 -11 14 -1 23 9 10 10 9 10 -8z
m121 -10 c-3 -3 -9 2 -12 12 -6 14 -5 15 5 6 7 -7 10 -15 7 -18z m195 10 c-3
-9 -8 -14 -10 -11 -3 3 -2 9 2 15 9 16 15 13 8 -4z m320 0 c-3 -9 -8 -14 -10
-11 -3 3 -2 9 2 15 9 16 15 13 8 -4z m1760 0 c-3 -9 -8 -14 -10 -11 -3 3 -2 9
2 15 9 16 15 13 8 -4z m982 3 c5 4 5 1 1 -6 -6 -10 -11 -10 -22 -1 -8 6 -14
14 -14 16 0 3 6 0 13 -6 8 -6 18 -7 22 -3z m61 -8 c0 -12 -4 -16 -9 -11 -5 5
-6 14 -3 20 10 15 12 14 12 -9z m-3576 0 c0 -5 -5 -10 -11 -10 -5 0 -7 5 -4
10 3 6 8 10 11 10 2 0 4 -4 4 -10z m37 3 c-4 -3 -1 -13 6 -22 11 -14 10 -14
-5 -2 -21 15 -23 31 -6 31 6 0 8 -3 5 -7z m514 -10 c13 -16 12 -17 -3 -4 -17
13 -22 21 -14 21 2 0 10 -8 17 -17z m1244 7 c3 -5 1 -10 -4 -10 -6 0 -11 5
-11 10 0 6 2 10 4 10 3 0 8 -4 11 -10z m360 -8 c-3 -3 -11 0 -18 7 -9 10 -8
11 6 5 10 -3 15 -9 12 -12z m185 14 c0 -3 -4 -8 -10 -11 -5 -3 -10 -1 -10 4 0
6 5 11 10 11 6 0 10 -2 10 -4z m345 -6 c-3 -5 -12 -10 -18 -10 -7 0 -6 4 3 10
19 12 23 12 15 0z m175 6 c0 -3 -4 -8 -10 -11 -5 -3 -10 -1 -10 4 0 6 5 11 10
11 6 0 10 -2 10 -4z m251 -13 c13 -16 12 -17 -3 -4 -10 7 -18 15 -18 17 0 8 8
3 21 -13z m578 3 c9 -11 9 -16 0 -22 -7 -4 -9 -3 -5 4 3 6 -2 15 -11 21 -10 6
-13 11 -7 11 6 0 17 -6 23 -14z m-3485 -14 c3 -5 -1 -9 -9 -9 -8 0 -12 4 -9 9
3 4 7 8 9 8 2 0 6 -4 9 -8z m1256 4 c0 -3 -4 -8 -10 -11 -5 -3 -10 -1 -10 4 0
6 5 11 10 11 6 0 10 -2 10 -4z m160 -6 c0 -5 -2 -10 -4 -10 -3 0 -8 5 -11 10
-3 6 -1 10 4 10 6 0 11 -4 11 -10z m400 0 c0 -5 -5 -10 -11 -10 -5 0 -7 5 -4
10 3 6 8 10 11 10 2 0 4 -4 4 -10z m35 0 c3 -5 1 -10 -4 -10 -6 0 -11 5 -11
10 0 6 2 10 4 10 3 0 8 -4 11 -10z m440 0 c3 -5 1 -10 -4 -10 -6 0 -11 5 -11
10 0 6 2 10 4 10 3 0 8 -4 11 -10z m85 0 c0 -5 -5 -10 -11 -10 -5 0 -7 5 -4
10 3 6 8 10 11 10 2 0 4 -4 4 -10z m220 -3 c0 -2 -10 -12 -22 -23 l-23 -19 19
23 c18 21 26 27 26 19z m-2780 -11 c0 -3 -4 -8 -10 -11 -5 -3 -10 -1 -10 4 0
6 5 11 10 11 6 0 10 -2 10 -4z m430 0 c0 -2 -8 -10 -17 -17 -16 -13 -17 -12
-4 4 13 16 21 21 21 13z m70 -2 c0 -8 -19 -13 -24 -6 -3 5 1 9 9 9 8 0 15 -2
15 -3z m525 -4 c-3 -5 -12 -10 -18 -10 -7 0 -6 4 3 10 19 12 23 12 15 0z m226
-7 c13 -16 12 -17 -3 -4 -10 7 -18 15 -18 17 0 8 8 3 21 -13z m1873 5 c-3 -4
-9 -8 -15 -8 -5 0 -9 4 -9 8 0 5 7 9 15 9 8 0 12 -4 9 -9z m311 -8 c3 -5 1
-10 -4 -10 -6 0 -11 5 -11 10 0 6 2 10 4 10 3 0 8 -4 11 -10z m-3128 -7 c-4
-3 -2 -12 4 -20 9 -9 8 -13 0 -13 -6 0 -11 5 -11 11 0 5 -4 7 -10 4 -5 -3 -10
-2 -10 4 0 5 6 12 13 14 18 8 21 8 14 0z m189 -19 c-23 -17 -36 -18 -36 -3 0
5 4 8 9 4 6 -3 16 1 23 9 7 8 15 12 18 9 3 -2 -4 -11 -14 -19z m42 14 c-2 -7
3 -12 10 -10 8 1 11 -2 7 -8 -5 -8 -11 -8 -21 1 -7 6 -11 15 -8 20 8 13 14 11
12 -3z m202 6 c0 -8 -19 -13 -24 -6 -3 5 1 9 9 9 8 0 15 -2 15 -3z m1380 -4
c0 -5 -2 -10 -4 -10 -3 0 -8 5 -11 10 -3 6 -1 10 4 10 6 0 11 -4 11 -10z m540
6 c0 -2 -7 -7 -16 -10 -8 -3 -12 -2 -9 4 6 10 25 14 25 6z m-1726 -52 c2 -6 1
-16 -3 -23 -6 -8 -14 -6 -32 8 -14 11 -33 19 -43 18 -11 -1 -21 3 -23 9 -2 6
11 8 34 6 36 -4 37 -4 23 14 -14 16 -12 16 12 -1 15 -11 29 -25 32 -31z m-299
8 c-8 -8 -25 10 -19 20 4 6 9 5 15 -3 4 -7 6 -15 4 -17z m370 19 c-3 -5 -1
-12 5 -16 5 -3 10 -1 10 5 0 6 5 8 11 4 8 -4 3 -11 -12 -19 -23 -13 -49 -10
-49 6 0 4 7 6 15 2 9 -3 15 -2 14 3 -2 14 0 24 7 24 3 0 3 -4 -1 -9z m-495
-16 c-14 -17 -30 -20 -30 -6 0 5 8 12 18 14 9 3 19 5 21 6 2 0 -2 -6 -9 -14z
m685 5 c3 -5 1 -10 -4 -10 -6 0 -11 5 -11 10 0 6 2 10 4 10 3 0 8 -4 11 -10z
m869 -31 c-23 -25 -29 -24 -30 6 -1 17 3 25 15 25 14 0 14 -2 1 -10 -10 -7
-11 -10 -2 -10 7 0 16 8 19 17 5 11 8 13 11 4 2 -6 -4 -21 -14 -32z m-1190 -2
c-2 -7 -14 -13 -25 -13 -19 0 -19 1 -3 13 10 7 21 13 26 13 4 0 5 -6 2 -13z"/>
<path d="M11335 2120 c3 -5 8 -10 11 -10 2 0 4 5 4 10 0 6 -5 10 -11 10 -5 0
-7 -4 -4 -10z"/>
<path d="M11385 2111 c2 -19 18 -17 21 2 1 8 -4 14 -11 14 -7 0 -12 -7 -10
-16z"/>
<path d="M11429 2128 c-5 -18 -6 -38 -1 -34 7 8 12 36 6 36 -2 0 -4 -1 -5 -2z"/>
<path d="M11271 2093 c7 -12 15 -20 18 -17 3 2 -3 12 -13 22 -17 16 -18 16 -5
-5z"/>
<path d="M10760 2030 c0 -5 5 -10 11 -10 5 0 7 5 4 10 -3 6 -8 10 -11 10 -2 0
-4 -4 -4 -10z"/>
<path d="M7290 1861 c0 -5 7 -12 16 -15 14 -5 15 -4 4 9 -14 17 -20 19 -20 6z"/>
<path d="M11585 2197 c-15 -12 -16 -15 -4 -22 8 -5 11 -5 7 0 -4 4 0 14 10 21
23 18 11 18 -13 1z"/>
<path d="M11739 2193 c-13 -16 -12 -17 4 -4 16 13 21 21 13 21 -2 0 -10 -8
-17 -17z"/>
<path d="M12107 2199 c7 -7 15 -10 18 -7 3 3 -2 9 -12 12 -14 6 -15 5 -6 -5z"/>
<path d="M11553 2164 c0 -17 2 -22 7 -13 5 6 6 18 3 26 -8 19 -10 16 -10 -13z"/>
<path d="M11630 2181 c0 -10 29 -36 34 -30 1 2 -6 12 -16 22 -10 9 -18 13 -18
8z"/>
<path d="M4473 2165 c0 -8 4 -12 9 -9 5 3 6 10 3 15 -9 13 -12 11 -12 -6z"/>
<path d="M11510 2176 c0 -2 7 -9 15 -16 9 -7 15 -8 15 -2 0 5 -7 12 -15 16 -8
3 -15 4 -15 2z"/>
<path d="M4374 2156 c1 -8 5 -18 8 -22 4 -3 5 1 4 10 -1 8 -5 18 -8 22 -4 3
-5 -1 -4 -10z"/>
<path d="M11594 2158 c-4 -6 -3 -8 4 -4 6 3 13 2 16 -3 10 -16 -14 -24 -29
-11 -20 16 -19 3 0 -16 13 -14 17 -14 30 0 8 8 12 22 9 30 -7 19 -20 21 -30 4z"/>
<path d="M4536 2143 c-6 -14 -5 -15 5 -6 7 7 10 15 7 18 -3 3 -9 -2 -12 -12z"/>
<path d="M4572 2151 c5 -16 44 -25 53 -12 3 5 0 13 -6 17 -8 5 -9 3 -5 -5 10
-15 -25 -11 -37 4 -5 6 -7 4 -5 -4z"/>
<path d="M11676 2143 c-6 -14 -5 -15 5 -6 7 7 10 15 7 18 -3 3 -9 -2 -12 -12z"/>
<path d="M4457 2129 c7 -7 15 -10 18 -7 3 3 -2 9 -12 12 -14 6 -15 5 -6 -5z"/>
<path d="M4629 2124 c-7 -8 -20 -12 -33 -9 -19 5 -19 5 -3 -5 15 -9 22 -8 38
6 10 9 19 12 19 6 0 -6 -5 -14 -10 -17 -11 -7 -9 -51 3 -60 4 -3 5 -2 2 2 -3
3 2 15 12 25 9 10 11 18 5 18 -6 0 -13 -6 -16 -12 -3 -7 -5 -4 -3 7 1 13 11
21 27 23 14 1 30 3 36 4 6 1 11 7 11 14 0 9 -7 8 -24 -3 -12 -8 -23 -11 -23
-5 0 17 -28 22 -41 6z"/>
<path d="M4728 2118 c-2 -12 -11 -22 -22 -24 -18 -3 -39 -24 -31 -32 8 -9 66
-9 71 -1 3 5 11 9 17 9 7 -1 1 -10 -12 -20 -13 -11 -20 -20 -15 -20 4 0 19 10
32 23 20 17 24 18 19 5 -3 -10 -2 -20 4 -23 5 -4 7 -10 4 -15 -3 -5 -1 -11 4
-14 11 -7 9 13 -2 32 -5 6 -4 12 2 12 5 0 15 -8 20 -17 6 -10 11 -13 11 -8 0
15 59 13 65 -2 2 -7 0 -13 -5 -13 -6 0 -10 -5 -10 -11 0 -8 4 -8 15 1 18 15 1
55 -20 46 -7 -2 -19 3 -27 12 -12 16 -11 16 7 2 19 -14 19 -14 5 5 -11 16 -11
17 0 8 8 -7 18 -13 24 -13 5 0 1 7 -10 16 -10 8 -13 12 -5 8 8 -4 12 -3 8 3
-3 5 0 10 7 10 7 0 12 -10 10 -23 -3 -31 31 -28 45 3 11 24 26 30 36 14 3 -5
0 -13 -6 -17 -8 -4 -9 -3 -5 4 4 7 3 12 -2 12 -6 0 -13 -7 -16 -16 -4 -10 -2
-13 7 -9 6 4 3 0 -7 -9 -10 -8 -23 -13 -27 -10 -15 9 -10 -13 6 -26 8 -7 13
-16 10 -20 -3 -5 0 -12 6 -16 8 -5 9 -3 4 6 -6 10 -4 12 8 7 10 -3 17 -3 17 2
0 5 -9 11 -20 14 -11 3 -20 11 -20 17 0 9 4 9 17 -1 11 -10 14 -10 9 -1 -4 7
-2 12 4 12 6 0 9 4 5 9 -12 21 19 23 36 3 11 -15 19 -18 21 -10 6 17 88 19 95
2 6 -17 19 -10 33 17 10 17 8 19 -14 15 -14 -2 -27 1 -30 7 -3 9 -5 9 -5 0 -1
-7 -6 -13 -12 -13 -5 0 -7 5 -4 10 3 6 2 10 -4 10 -5 0 -12 -6 -14 -12 -4 -10
-8 -10 -15 1 -9 12 -35 18 -102 24 -14 2 -29 5 -35 8 -5 3 -26 5 -45 4 -19 0
-38 4 -42 10 -5 6 -8 5 -8 -4 0 -9 -4 -10 -12 -5 -16 12 -39 11 -57 0 -11 -7
-13 -5 -8 7 3 10 2 17 -3 17 -5 0 -10 -10 -12 -22z m77 -9 c6 -3 23 -5 38 -4
l28 2 -21 -22 c-15 -16 -17 -24 -9 -32 20 -20 -18 -9 -41 12 -11 10 -20 14
-20 10 0 -5 -7 0 -16 11 -8 10 -13 14 -10 7 8 -14 -11 -27 -41 -29 -24 -1 -31
10 -13 21 6 3 10 2 10 -4 0 -5 11 0 25 13 23 21 48 27 70 15z m129 -12 c4 4 4
-1 0 -10 -8 -22 -26 -17 -30 7 -2 13 1 14 10 7 7 -6 16 -8 20 -4z m86 -19 c0
7 5 10 11 6 8 -4 7 -9 -2 -14 -16 -10 -41 -1 -33 12 4 6 10 5 15 -3 7 -11 9
-11 9 -1z"/>
<path d="M4767 2101 c4 -4 22 -17 38 -31 17 -14 27 -21 22 -16 -4 5 0 17 9 27
14 16 14 17 -3 15 -10 -2 -22 -1 -28 2 -13 8 -48 10 -38 3z m58 -13 c5 4 5 1
1 -6 -6 -10 -11 -10 -22 -1 -8 6 -14 14 -14 16 0 3 6 0 13 -6 8 -6 18 -7 22
-3z"/>
<path d="M4490 2120 c0 -5 5 -10 10 -10 6 0 10 5 10 10 0 6 -4 10 -10 10 -5 0
-10 -4 -10 -10z"/>
<path d="M4545 2119 c-11 -16 -1 -19 13 -3 7 8 8 14 3 14 -5 0 -13 -5 -16 -11z"/>
<path d="M11827 2119 c7 -7 15 -10 18 -7 3 3 -2 9 -12 12 -14 6 -15 5 -6 -5z"/>
<path d="M11073 2107 c-3 -5 -12 -6 -22 -3 -15 6 -15 5 0 -6 15 -12 19 -19 19
-34 0 -4 6 -1 13 5 8 6 17 8 20 4 7 -6 11 13 7 32 -1 6 2 6 7 2 4 -5 8 -13 8
-18 0 -11 15 -12 16 -1 0 4 4 12 9 17 5 6 -6 10 -32 10 -22 0 -42 -4 -45 -8z
m21 -6 c3 -5 -1 -14 -8 -20 -12 -10 -14 -9 -11 6 2 10 4 19 4 21 2 5 10 2 15
-7z"/>
<path d="M11633 2105 c0 -8 4 -12 9 -9 5 3 6 10 3 15 -9 13 -12 11 -12 -6z"/>
<path d="M4515 2100 c-3 -5 -1 -10 4 -10 6 0 11 5 11 10 0 6 -2 10 -4 10 -3 0
-8 -4 -11 -10z"/>
<path d="M4556 2093 c-6 -14 -5 -15 5 -6 7 7 10 15 7 18 -3 3 -9 -2 -12 -12z"/>
<path d="M10983 2093 c-15 -5 -17 -23 -4 -23 5 0 11 7 15 15 3 8 4 15 3 14 -1
0 -8 -3 -14 -6z"/>
<path d="M4580 2079 c0 -5 5 -7 10 -4 6 3 10 8 10 11 0 2 -4 4 -10 4 -5 0 -10
-5 -10 -11z"/>
<path d="M10920 2079 c0 -5 5 -7 10 -4 6 3 10 8 10 11 0 2 -4 4 -10 4 -5 0
-10 -5 -10 -11z"/>
<path d="M11175 2081 c-3 -5 -2 -12 3 -15 5 -3 9 1 9 9 0 17 -3 19 -12 6z"/>
<path d="M4536 2058 c3 -4 11 -5 19 -1 21 7 19 12 -4 10 -11 0 -18 -5 -15 -9z"/>
<path d="M11496 2047 c3 -10 9 -15 12 -12 3 3 0 11 -7 18 -10 9 -11 8 -5 -6z"/>
<path d="M5030 2040 c0 -5 5 -10 10 -10 6 0 10 5 10 10 0 6 -4 10 -10 10 -5 0
-10 -4 -10 -10z"/>
<path d="M11308 2019 c6 -9 8 -20 4 -25 -4 -5 -3 -6 2 -2 5 4 14 3 21 -2 8 -7
12 -5 12 5 0 8 -3 13 -5 10 -3 -3 -15 3 -26 12 -15 14 -18 14 -8 2z"/>
<path d="M11616 2021 c-3 -5 2 -15 12 -22 15 -12 16 -12 5 2 -7 9 -10 19 -6
22 3 4 4 7 0 7 -3 0 -8 -4 -11 -9z"/>
<path d="M4857 1999 c4 -13 8 -18 11 -10 2 7 -1 18 -6 23 -8 8 -9 4 -5 -13z"/>
<path d="M10842 2011 c-10 -6 -10 -10 3 -21 13 -11 15 -9 15 9 0 24 0 24 -18
12z"/>
<path d="M11235 2009 c-11 -16 -1 -19 13 -3 7 8 8 14 3 14 -5 0 -13 -5 -16
-11z"/>
<path d="M4754 2002 c4 -3 14 -7 22 -8 9 -1 13 0 10 4 -4 3 -14 7 -22 8 -9 1
-13 0 -10 -4z"/>
<path d="M5060 2000 c-9 -6 -10 -10 -3 -10 6 0 15 5 18 10 8 12 4 12 -15 0z"/>
<path d="M11100 1995 c0 -8 2 -15 4 -15 2 0 6 7 10 15 3 8 1 15 -4 15 -6 0
-10 -7 -10 -15z"/>
<path d="M11184 1990 c0 -13 4 -16 10 -10 7 7 7 13 0 20 -6 6 -10 3 -10 -10z"/>
<path d="M10987 1988 c-12 -10 -14 -17 -6 -28 9 -13 10 -13 6 0 -2 8 3 20 12
27 9 7 13 13 10 13 -3 0 -13 -6 -22 -12z"/>
<path d="M4987 1975 c3 -8 9 -12 14 -9 12 7 11 11 -5 17 -10 4 -13 1 -9 -8z"/>
<path d="M5076 1982 c-3 -5 1 -9 9 -9 8 0 12 4 9 9 -3 4 -7 8 -9 8 -2 0 -6 -4
-9 -8z"/>
<path d="M11014 1979 c-4 -7 -3 -9 4 -5 5 3 13 0 15 -6 4 -9 6 -10 6 -1 1 17
-16 25 -25 12z"/>
<path d="M4899 1968 c15 -21 31 -23 31 -6 0 6 -3 8 -7 5 -3 -4 -13 -1 -22 6
-14 11 -14 10 -2 -5z"/>
<path d="M5230 1965 c0 -8 4 -15 10 -15 5 0 7 7 4 15 -4 8 -8 15 -10 15 -2 0
-4 -7 -4 -15z"/>
<path d="M10873 1965 c0 -8 4 -12 8 -9 4 2 10 -2 12 -8 4 -8 6 -9 6 -2 1 6 -5
17 -12 23 -10 8 -14 7 -14 -4z"/>
<path d="M11221 1965 c9 -11 15 -28 14 -38 -2 -11 -1 -16 3 -13 13 14 9 36
-11 53 -22 18 -22 18 -6 -2z"/>
<path d="M4555 1960 c-3 -5 -1 -10 4 -10 6 0 11 5 11 10 0 6 -2 10 -4 10 -3 0
-8 -4 -11 -10z"/>
<path d="M10630 1960 c0 -5 5 -10 11 -10 5 0 7 5 4 10 -3 6 -8 10 -11 10 -2 0
-4 -4 -4 -10z"/>
<path d="M10660 1960 c0 -6 7 -10 15 -10 8 0 15 2 15 4 0 2 -7 6 -15 10 -8 3
-15 1 -15 -4z"/>
<path d="M10820 1960 c-18 -12 -2 -12 25 0 13 6 15 9 5 9 -8 0 -22 -4 -30 -9z"/>
<path d="M10915 1960 c-3 -5 -1 -10 4 -10 6 0 11 5 11 10 0 6 -2 10 -4 10 -3
0 -8 -4 -11 -10z"/>
<path d="M11050 1960 c0 -5 5 -10 10 -10 6 0 10 5 10 10 0 6 -4 10 -10 10 -5
0 -10 -4 -10 -10z"/>
<path d="M5070 1956 c0 -2 9 -6 20 -9 11 -3 18 -1 14 4 -5 9 -34 13 -34 5z"/>
<path d="M5491 1955 c0 -5 10 -23 23 -39 17 -20 26 -25 31 -16 5 9 4 11 -3 6
-7 -4 -12 -4 -12 1 0 4 -9 19 -20 33 -11 14 -19 21 -19 15z"/>
<path d="M11119 1955 c-1 -3 -2 -13 -3 -22 -1 -10 -4 -23 -8 -29 -4 -6 -2 -11
5 -11 8 0 13 14 13 34 0 29 -4 43 -7 28z"/>
<path d="M11149 1943 c-13 -16 -12 -17 4 -4 9 7 17 15 17 17 0 8 -8 3 -21 -13z"/>
<path d="M4610 1939 c0 -5 5 -7 10 -4 6 3 10 8 10 11 0 2 -4 4 -10 4 -5 0 -10
-5 -10 -11z"/>
<path d="M5039 1933 c-12 -16 -12 -17 2 -6 9 7 20 9 24 5 5 -4 5 -1 1 6 -9 16
-11 15 -27 -5z"/>
<path d="M5116 1933 c-6 -14 -5 -15 5 -6 7 7 10 15 7 18 -3 3 -9 -2 -12 -12z"/>
<path d="M5214 1942 c3 -5 0 -13 -6 -15 -9 -4 -10 -6 -1 -6 17 -1 25 16 12 25
-7 4 -9 3 -5 -4z"/>
<path d="M5255 1941 c-6 -11 13 -26 22 -17 4 3 1 6 -6 6 -7 0 -9 5 -6 10 3 6
4 10 1 10 -3 0 -7 -4 -11 -9z"/>
<path d="M5299 1947 c-7 -22 -5 -36 4 -30 7 4 8 0 3 -13 -6 -15 -5 -16 5 -7
10 10 10 15 0 27 -10 12 -9 15 8 13 14 -1 20 -6 16 -15 -3 -7 0 -10 6 -7 16
10 5 28 -19 32 -12 1 -22 2 -23 0z"/>
<path d="M10350 1931 c-6 -12 -7 -21 -1 -21 10 0 24 30 17 37 -2 3 -9 -5 -16
-16z"/>
<path d="M10695 1941 c-3 -5 0 -13 6 -17 7 -4 9 -3 5 4 -4 7 2 10 14 9 12 -1
19 -6 16 -14 -3 -7 -1 -13 5 -13 6 0 9 7 7 17 -3 18 -44 28 -53 14z"/>
<path d="M10855 1941 c6 -11 4 -13 -10 -7 -18 7 -18 6 0 -14 10 -11 19 -20 20
-20 6 0 -3 41 -10 47 -4 5 -4 2 0 -6z"/>
<path d="M10956 1941 c-3 -4 2 -16 12 -24 16 -15 18 -15 19 6 2 17 0 19 -7 7
-9 -14 -14 -7 -11 13 1 10 -7 9 -13 -2z"/>
<path d="M11307 1939 c7 -7 15 -10 18 -7 3 3 -2 9 -12 12 -14 6 -15 5 -6 -5z"/>
<path d="M5160 1930 c0 -5 -5 -9 -11 -7 -6 1 -13 -4 -14 -11 -2 -7 -1 -8 2 -2
3 7 13 5 27 -7 11 -9 16 -11 9 -4 -6 7 -9 20 -6 27 3 8 2 14 -1 14 -3 0 -6 -4
-6 -10z"/>
<path d="M5430 1931 c0 -7 -4 -10 -9 -6 -15 9 -25 -15 -12 -28 9 -9 10 -7 5 7
-5 13 -4 17 4 12 12 -7 28 12 18 21 -3 4 -6 1 -6 -6z"/>
<path d="M5684 1923 c0 -9 -5 -18 -12 -20 -8 -3 -10 2 -6 14 5 14 4 15 -4 3
-13 -18 -7 -29 16 -27 18 1 28 32 12 42 -4 2 -7 -3 -6 -12z"/>
<path d="M5740 1925 c-11 -13 -11 -18 0 -28 10 -10 12 -9 7 4 -3 9 0 22 6 28
6 6 8 11 5 11 -3 0 -11 -7 -18 -15z"/>
<path d="M5860 1925 c-11 -13 -11 -18 0 -28 10 -10 12 -9 7 6 -4 9 -2 17 3 17
6 0 10 -5 10 -12 0 -6 3 -9 6 -5 3 3 2 13 -3 22 -9 15 -11 15 -23 0z"/>
<path d="M10376 1925 c-3 -8 -1 -15 4 -15 6 0 10 7 10 15 0 8 -2 15 -4 15 -2
0 -6 -7 -10 -15z"/>
<path d="M10509 1920 c-13 -10 -22 -20 -19 -20 31 -7 40 -7 40 1 0 5 -6 9 -12
9 -7 1 -2 7 12 15 14 8 20 14 14 15 -7 0 -22 -9 -35 -20z"/>
<path d="M10556 1925 c-3 -8 -1 -15 4 -15 6 0 10 7 10 15 0 8 -2 15 -4 15 -2
0 -6 -7 -10 -15z"/>
<path d="M10650 1935 c0 -5 5 -17 10 -25 5 -8 10 -10 10 -5 0 6 -5 17 -10 25
-5 8 -10 11 -10 5z"/>
<path d="M10792 1933 c-6 -2 -10 -9 -6 -14 8 -14 21 -11 21 6 0 8 -1 15 -1 14
-1 0 -7 -3 -14 -6z"/>
<path d="M11175 1931 c-3 -5 -2 -12 3 -15 5 -3 9 1 9 9 0 17 -3 19 -12 6z"/>
<path d="M4806 1918 c3 -5 10 -6 15 -3 13 9 11 12 -6 12 -8 0 -12 -4 -9 -9z"/>
<path d="M5000 1920 c-9 -6 -10 -10 -3 -10 6 0 15 5 18 10 8 12 4 12 -15 0z"/>
<path d="M5362 1918 c-15 -15 -15 -28 0 -28 6 0 8 3 5 7 -4 3 -2 12 4 20 14
16 7 17 -9 1z"/>
<path d="M5465 1919 c-4 -6 -4 -13 -1 -16 3 -4 6 -1 6 6 0 7 5 9 10 6 6 -3 10
-1 10 4 0 14 -17 14 -25 0z"/>
<path d="M5767 1923 c-4 -3 -7 -11 -7 -17 0 -6 4 -5 9 3 6 9 11 10 15 2 4 -6
12 -11 17 -11 6 0 4 7 -5 15 -16 17 -20 18 -29 8z"/>
<path d="M5824 1919 c-3 -6 2 -18 12 -27 17 -16 17 -16 5 0 -7 9 -10 22 -6 28
3 5 4 10 1 10 -3 0 -8 -5 -12 -11z"/>
<path d="M10161 1911 c-13 -10 -21 -24 -18 -32 4 -10 6 -9 6 4 1 10 5 16 9 13
4 -2 13 4 20 15 15 23 13 23 -17 0z"/>
<path d="M10205 1914 c-14 -11 -14 -12 0 -18 9 -3 13 -10 10 -16 -3 -5 -1 -10
4 -10 14 0 14 13 0 27 -8 8 -8 13 0 17 6 4 11 2 11 -3 0 -15 17 -14 23 2 6 16
-26 17 -48 1z"/>
<path d="M10406 1919 c2 -4 -4 -12 -13 -18 -16 -9 -16 -10 4 -8 12 0 20 4 17
8 -2 4 4 12 13 18 16 9 16 10 -4 8 -12 0 -20 -4 -17 -8z"/>
<path d="M4913 1905 c0 -8 4 -12 9 -9 5 3 6 10 3 15 -9 13 -12 11 -12 -6z"/>
<path d="M6095 1911 c-2 -5 4 -16 15 -26 12 -10 20 -13 20 -7 0 7 -5 12 -11
12 -5 0 -7 5 -4 11 5 7 13 5 25 -6 14 -12 20 -13 26 -4 4 7 3 10 -4 5 -5 -3
-12 -2 -14 4 -4 13 -46 21 -53 11z"/>
<path d="M10075 1910 c-3 -5 -1 -10 4 -10 6 0 11 5 11 10 0 6 -2 10 -4 10 -3
0 -8 -4 -11 -10z"/>
<path d="M10601 1913 c-1 -17 16 -25 25 -12 4 7 3 9 -4 5 -5 -3 -13 0 -15 6
-4 9 -6 10 -6 1z"/>
<path d="M5080 1895 c-7 -9 -11 -17 -9 -20 3 -2 10 5 17 15 14 24 10 26 -8 5z"/>
<path d="M5436 1895 c-9 -26 -7 -32 5 -12 6 10 9 21 6 23 -2 3 -7 -2 -11 -11z"/>
<path d="M5499 1908 c-8 -26 -5 -36 9 -31 11 5 13 3 7 -7 -6 -9 -4 -11 5 -5
10 6 10 11 -3 20 -9 7 -14 15 -10 18 3 4 3 7 0 7 -4 0 -7 -1 -8 -2z"/>
<path d="M5590 1900 c0 -5 5 -10 10 -10 6 0 10 5 10 10 0 6 -4 10 -10 10 -5 0
-10 -4 -10 -10z"/>
<path d="M5710 1903 c0 -6 8 -17 18 -24 16 -13 16 -13 2 6 -8 11 -16 22 -17
24 -2 2 -3 0 -3 -6z"/>
<path d="M5940 1890 c-7 -14 -7 -20 0 -20 5 0 10 8 10 18 1 16 1 16 14 0 18
-25 29 -23 14 2 -7 11 -16 20 -20 20 -4 0 -12 -9 -18 -20z"/>
<path d="M9747 1895 c-15 -11 -15 -13 -2 -18 8 -4 12 -13 9 -22 -3 -8 -11 -12
-18 -8 -6 3 -8 2 -4 -2 5 -5 20 -10 35 -11 23 -2 25 -1 11 7 -10 5 -15 16 -12
24 4 8 1 15 -6 15 -6 0 -8 5 -4 12 5 7 11 5 21 -7 11 -16 13 -16 13 -3 0 22
-22 28 -43 13z"/>
<path d="M9864 1902 c3 -6 0 -12 -6 -15 -9 -3 -7 -9 7 -20 19 -14 45 -13 45 3
0 4 -12 15 -26 25 -15 9 -24 12 -20 7z m30 -33 c-6 -11 -24 -2 -24 11 0 5 7 7
15 4 8 -4 12 -10 9 -15z"/>
<path d="M9965 1900 c-3 -5 -1 -10 4 -10 6 0 11 5 11 10 0 6 -2 10 -4 10 -3 0
-8 -4 -11 -10z"/>
<path d="M10317 1895 c-4 -8 -3 -16 1 -19 4 -3 9 4 9 15 2 23 -3 25 -10 4z"/>
<path d="M10430 1900 c0 -5 5 -10 10 -10 6 0 10 5 10 10 0 6 -4 10 -10 10 -5
0 -10 -4 -10 -10z"/>
<path d="M10575 1901 c-3 -6 5 -15 17 -21 21 -10 21 -10 6 3 -10 8 -15 17 -11
20 3 4 4 7 0 7 -3 0 -8 -4 -12 -9z"/>
<path d="M10631 1887 c-13 -21 -12 -21 5 -5 10 10 16 20 13 22 -3 3 -11 -5
-18 -17z"/>
<path d="M10699 1908 c-9 -30 -6 -37 12 -28 23 13 25 22 2 13 -11 -4 -14 -3
-9 5 4 7 5 12 2 12 -3 0 -6 -1 -7 -2z"/>
<path d="M11370 1899 c0 -5 5 -7 10 -4 6 3 10 8 10 11 0 2 -4 4 -10 4 -5 0
-10 -5 -10 -11z"/>
<path d="M5257 1890 c7 -8 20 -15 29 -16 9 -1 13 1 9 4 -4 4 -10 7 -13 7 -4 0
-14 4 -22 9 -12 7 -13 6 -3 -4z"/>
<path d="M5896 1891 c-4 -5 3 -7 14 -4 23 6 26 13 6 13 -8 0 -17 -4 -20 -9z"/>
<path d="M6062 1889 c10 -5 15 -17 12 -27 -5 -14 -3 -14 6 2 10 15 9 20 -1 27
-8 5 -18 9 -24 9 -5 -1 -2 -5 7 -11z"/>
<path d="M6373 1883 c-10 -10 -14 -15 -9 -10 18 13 29 7 16 -8 -9 -10 -9 -15
-1 -15 6 0 11 5 11 11 0 5 6 7 13 3 9 -6 9 -5 0 8 -7 8 -10 18 -6 21 15 15 -6
6 -24 -10z"/>
<path d="M6466 1888 c3 -4 9 -8 15 -8 5 0 9 4 9 8 0 5 -7 9 -15 9 -8 0 -12 -4
-9 -9z"/>
<path d="M10096 1891 c-4 -5 3 -7 14 -4 23 6 26 13 6 13 -8 0 -17 -4 -20 -9z"/>
<path d="M10540 1893 c0 -7 5 -15 10 -18 6 -4 8 -11 5 -16 -4 -5 -1 -9 4 -9
15 0 13 11 -4 34 -8 11 -15 15 -15 9z"/>
<path d="M10813 1877 c0 -12 1 -16 4 -9 3 9 9 10 17 3 9 -8 13 -6 13 4 0 8 -3
13 -5 10 -3 -3 -10 -1 -16 5 -8 6 -12 2 -13 -13z"/>
<path d="M10890 1890 c-9 -6 -10 -10 -3 -10 6 0 15 5 18 10 8 12 4 12 -15 0z"/>
<path d="M11039 1898 c-5 -18 -6 -38 -1 -34 7 8 12 36 6 36 -2 0 -4 -1 -5 -2z"/>
<path d="M11235 1889 c-4 -6 -5 -12 -2 -15 2 -3 7 2 10 11 7 17 1 20 -8 4z"/>
<path d="M4736 1882 c-3 -5 1 -9 9 -9 8 0 12 4 9 9 -3 4 -7 8 -9 8 -2 0 -6 -4
-9 -8z"/>
<path d="M4985 1880 c-3 -6 1 -7 9 -4 18 7 21 14 7 14 -6 0 -13 -4 -16 -10z"/>
<path d="M5039 1873 c-13 -16 -12 -17 4 -4 9 7 17 15 17 17 0 8 -8 3 -21 -13z"/>
<path d="M5376 1874 c-5 -14 -4 -15 9 -4 17 14 19 20 6 20 -5 0 -12 -7 -15
-16z"/>
<path d="M5544 1878 c-4 -7 -4 -10 1 -6 4 4 16 3 26 -3 11 -5 19 -7 19 -5 0 3
-9 10 -19 16 -15 7 -22 7 -27 -2z"/>
<path d="M5620 1882 c0 -5 7 -9 15 -9 8 0 15 4 15 9 0 4 -7 8 -15 8 -8 0 -15
-4 -15 -8z"/>
<path d="M5756 1874 c-24 -24 -19 -30 7 -8 12 10 24 20 26 21 2 2 -1 3 -7 3
-6 0 -18 -7 -26 -16z"/>
<path d="M5805 1880 c3 -5 8 -10 11 -10 2 0 4 5 4 10 0 6 -5 10 -11 10 -5 0
-7 -4 -4 -10z"/>
<path d="M6010 1880 c0 -5 5 -10 10 -10 6 0 10 5 10 10 0 6 -4 10 -10 10 -5 0
-10 -4 -10 -10z"/>
<path d="M9420 1882 c0 -12 20 -38 21 -27 0 6 5 -1 9 -15 7 -21 8 -22 9 -5 1
11 -8 28 -19 38 -11 9 -20 13 -20 9z"/>
<path d="M9494 1879 c-3 -6 -12 -8 -20 -5 -8 3 -11 0 -7 -10 4 -11 9 -12 19
-3 11 9 21 6 46 -13 18 -13 40 -28 48 -32 8 -4 2 3 -15 16 -16 13 -38 31 -47
40 -11 11 -20 13 -24 7z"/>
<path d="M9553 1876 c1 -11 9 -21 17 -23 10 -3 11 -2 4 4 -6 4 -14 15 -17 23
-5 11 -6 9 -4 -4z"/>
<path d="M9611 1884 c-1 -6 9 -19 22 -28 20 -15 20 -16 2 -11 -15 5 -17 3 -8
-6 17 -17 37 -1 22 17 -8 10 -8 14 0 14 6 0 11 4 11 8 0 5 -7 9 -15 9 -8 0
-12 -4 -9 -9 3 -4 1 -8 -5 -8 -5 0 -12 6 -14 13 -4 7 -6 8 -6 1z"/>
<path d="M10055 1880 c-3 -5 -2 -10 4 -10 5 0 13 5 16 10 3 6 2 10 -4 10 -5 0
-13 -4 -16 -10z"/>
<path d="M10250 1887 c0 -3 15 -10 32 -16 18 -6 28 -7 23 -2 -12 10 -55 25
-55 18z"/>
<path d="M10348 1883 c7 -3 16 -2 19 1 4 3 -2 6 -13 5 -11 0 -14 -3 -6 -6z"/>
<path d="M10456 1881 c-4 -5 3 -7 14 -4 23 6 26 13 6 13 -8 0 -17 -4 -20 -9z"/>
<path d="M10759 1873 c-12 -16 -12 -17 2 -6 9 7 20 9 24 5 5 -4 5 -1 1 6 -9
16 -11 15 -27 -5z"/>
<path d="M10964 1882 c4 -3 14 -7 22 -8 9 -1 13 0 10 4 -4 3 -14 7 -22 8 -9 1
-13 0 -10 -4z"/>
<path d="M5672 1871 c-11 -6 -9 -9 6 -13 15 -4 19 -2 15 8 -6 16 -4 16 -21 5z"/>
<path d="M5861 1876 c2 -2 15 -9 29 -15 24 -11 24 -11 6 3 -16 13 -49 24 -35
12z"/>
<path d="M6260 1865 c-9 -10 -9 -15 -1 -15 6 0 11 4 11 9 0 5 8 12 18 14 14 4
14 5 1 6 -9 0 -22 -6 -29 -14z"/>
<path d="M6782 1871 c-10 -6 -10 -10 2 -20 8 -7 12 -20 9 -29 -4 -14 -3 -15 5
-2 8 10 8 18 1 27 -6 7 -8 17 -4 23 7 12 4 12 -13 1z"/>
<path d="M9116 1872 c-2 -4 -1 -14 3 -21 6 -10 10 -9 14 3 6 16 -8 32 -17 18z"/>
<path d="M9593 1856 c0 -18 3 -24 9 -18 7 7 7 16 0 28 -8 14 -9 13 -9 -10z"/>
<path d="M10116 1867 c3 -10 9 -15 12 -12 3 3 0 11 -7 18 -10 9 -11 8 -5 -6z"/>
<path d="M10390 1876 c0 -2 7 -9 15 -16 13 -11 14 -10 9 4 -5 14 -24 23 -24
12z"/>
<path d="M10909 1863 c-13 -16 -12 -17 4 -4 16 13 21 21 13 21 -2 0 -10 -8
-17 -17z"/>
<path d="M4816 1862 c-2 -4 -1 -14 4 -22 7 -11 9 -9 7 8 -1 24 -3 26 -11 14z"/>
<path d="M5400 1855 c-7 -8 -17 -12 -23 -8 -6 4 -7 1 -3 -6 6 -9 13 -8 27 5
10 9 19 19 19 21 0 7 -8 2 -20 -12z"/>
<path d="M5830 1860 c0 -5 5 -10 10 -10 6 0 10 5 10 10 0 6 -4 10 -10 10 -5 0
-10 -4 -10 -10z"/>
<path d="M6099 1868 c-1 -2 -3 -13 -4 -25 -2 -15 2 -20 13 -15 9 3 13 1 9 -5
-3 -5 1 -10 10 -10 13 0 12 4 -5 18 -23 18 -30 35 -10 23 7 -4 8 -3 4 4 -7 11
-14 15 -17 10z"/>
<path d="M6527 1853 c5 -12 3 -14 -8 -8 -8 5 -11 4 -6 0 4 -5 14 -10 22 -11
12 -2 12 2 5 17 -13 23 -22 25 -13 2z"/>
<path d="M7070 1845 c-13 -14 -22 -25 -19 -26 31 -6 52 -3 56 8 3 7 10 10 17
6 6 -3 8 -3 4 2 -4 4 -2 15 5 23 11 13 9 14 -10 1 -13 -8 -23 -19 -23 -26 0
-7 -7 -10 -15 -6 -14 5 -14 8 1 24 26 28 11 23 -16 -6z"/>
<path d="M7506 1858 c3 -5 10 -6 15 -3 13 9 11 12 -6 12 -8 0 -12 -4 -9 -9z"/>
<path d="M8726 1859 c4 -7 0 -9 -14 -5 -15 5 -24 1 -32 -14 -6 -12 -9 -24 -7
-27 3 -2 8 5 12 16 3 12 11 21 16 21 6 0 7 -4 4 -10 -9 -14 7 -12 28 4 16 12
16 14 2 20 -10 4 -14 2 -9 -5z"/>
<path d="M8795 1860 c-4 -6 -10 -8 -15 -5 -11 7 -30 -19 -22 -31 4 -7 16 0 30
18 13 15 21 28 18 28 -2 0 -8 -5 -11 -10z"/>
<path d="M8819 1859 c-1 -8 -1 -17 0 -21 0 -5 -5 -8 -13 -8 -20 0 -29 -17 -15
-26 7 -4 9 -3 6 3 -4 6 3 13 14 16 12 3 18 10 14 16 -3 6 -2 11 4 11 5 0 12
-6 14 -12 4 -8 6 -9 6 -2 1 6 -6 17 -14 24 -12 10 -15 10 -16 -1z"/>
<path d="M8866 1849 c11 -12 12 -18 3 -21 -7 -2 -13 -12 -15 -21 -1 -9 2 -15
7 -11 5 3 7 10 4 15 -4 5 1 9 9 9 18 0 21 16 6 25 -6 4 -8 10 -6 14 3 4 -1 8
-9 8 -13 0 -13 -3 1 -18z"/>
<path d="M8933 1840 c0 -16 4 -27 9 -24 4 3 8 14 8 24 0 10 -4 21 -8 24 -5 3
-9 -8 -9 -24z"/>
<path d="M9060 1860 c0 -6 9 -10 21 -10 11 0 17 -4 14 -10 -3 -5 -1 -10 5 -10
7 0 10 5 8 12 -5 14 -48 31 -48 18z"/>
<path d="M9670 1859 c0 -5 5 -7 12 -3 8 5 9 2 5 -10 -4 -10 -3 -15 3 -11 6 3
10 1 10 -6 0 -7 3 -10 6 -7 8 8 -14 48 -26 48 -6 0 -10 -5 -10 -11z"/>
<path d="M9975 1861 c-3 -5 0 -13 6 -17 8 -5 9 -3 4 6 -6 9 -1 10 16 5 19 -5
21 -4 9 4 -19 13 -27 14 -35 2z"/>
<path d="M10088 1863 c6 -2 9 -10 6 -15 -4 -7 -2 -8 5 -4 13 9 5 26 -12 25 -9
0 -8 -2 1 -6z"/>
<path d="M10170 1851 c-7 -15 -7 -19 5 -17 8 1 18 6 22 11 5 4 2 5 -6 0 -11
-6 -13 -4 -8 8 9 23 0 21 -13 -2z"/>
<path d="M10235 1860 c-3 -6 1 -7 9 -4 18 7 21 14 7 14 -6 0 -13 -4 -16 -10z"/>
<path d="M10363 1855 c-3 -9 -3 -18 -1 -21 3 -3 8 4 11 16 6 23 -1 27 -10 5z"/>
<path d="M10706 1861 c-4 -5 3 -7 14 -4 23 6 26 13 6 13 -8 0 -17 -4 -20 -9z"/>
<path d="M10866 1858 c3 -5 10 -6 15 -3 13 9 11 12 -6 12 -8 0 -12 -4 -9 -9z"/>
<path d="M5335 1849 c-4 -6 -5 -12 -2 -15 2 -3 7 2 10 11 7 17 1 20 -8 4z"/>
<path d="M5556 1847 c3 -10 9 -15 12 -12 3 3 0 11 -7 18 -10 9 -11 8 -5 -6z"/>
<path d="M5711 1847 c-8 -10 -7 -14 2 -14 8 0 14 6 14 14 0 7 -1 13 -2 13 -2
0 -8 -6 -14 -13z"/>
<path d="M5940 1856 c0 -2 7 -7 16 -10 8 -3 12 -2 9 4 -6 10 -25 14 -25 6z"/>
<path d="M5988 1853 c7 -3 16 -2 19 1 4 3 -2 6 -13 5 -11 0 -14 -3 -6 -6z"/>
<path d="M6026 1843 c-6 -14 -5 -15 5 -6 7 7 10 15 7 18 -3 3 -9 -2 -12 -12z"/>
<path d="M6301 1844 c0 -11 3 -14 6 -6 3 7 2 16 -1 19 -3 4 -6 -2 -5 -13z"/>
<path d="M6576 1845 c-3 -8 -1 -15 4 -15 6 0 10 7 10 15 0 8 -2 15 -4 15 -2 0
-6 -7 -10 -15z"/>
<path d="M7710 1845 c0 -8 4 -15 8 -15 5 0 9 7 9 15 0 8 -4 15 -9 15 -4 0 -8
-7 -8 -15z"/>
<path d="M7902 1851 c-11 -7 -11 -9 2 -14 10 -4 13 -13 10 -24 -5 -15 -4 -16
5 -3 7 8 16 24 22 35 10 20 10 20 -5 1 -14 -18 -21 -15 -17 7 1 9 -1 9 -17 -2z"/>
<path d="M8067 1847 c-10 -26 -7 -32 18 -34 15 -1 23 2 19 8 -3 5 -15 7 -27 4
-21 -6 -21 -5 -4 9 10 8 14 17 9 20 -6 3 -12 0 -15 -7z"/>
<path d="M8105 1848 c9 -22 16 -22 41 -2 18 15 18 15 -2 5 -15 -7 -24 -7 -33
2 -10 9 -11 8 -6 -5z"/>
<path d="M8173 1846 c-4 -7 -15 -16 -23 -19 -12 -4 -11 -6 3 -6 10 -1 20 6 23
14 4 8 11 12 17 8 6 -3 7 -1 3 5 -9 15 -13 15 -23 -2z"/>
<path d="M8896 1853 c6 -4 14 -15 17 -23 5 -11 6 -9 4 4 -1 11 -9 21 -17 23
-10 3 -11 2 -4 -4z"/>
<path d="M9207 1853 c-10 -10 -8 -23 4 -23 5 0 8 4 5 9 -4 5 0 12 6 14 7 3 8
6 2 6 -6 1 -14 -2 -17 -6z"/>
<path d="M9834 1849 c-3 -6 -2 -15 3 -20 5 -5 9 -1 10 11 2 22 -2 25 -13 9z"/>
<path d="M10038 1853 c7 -3 16 -2 19 1 4 3 -2 6 -13 5 -11 0 -14 -3 -6 -6z"/>
<path d="M10141 1844 c0 -11 3 -14 6 -6 3 7 2 16 -1 19 -3 4 -6 -2 -5 -13z"/>
<path d="M10315 1849 c-4 -6 -5 -12 -2 -15 2 -3 7 2 10 11 7 17 1 20 -8 4z"/>
<path d="M10433 1845 c0 -8 4 -12 9 -9 5 3 6 10 3 15 -9 13 -12 11 -12 -6z"/>
<path d="M10634 1825 c0 -19 3 -32 5 -29 8 7 9 54 2 59 -4 2 -7 -12 -7 -30z"/>
<path d="M11275 1851 c-3 -5 -2 -12 3 -15 5 -3 9 1 9 9 0 17 -3 19 -12 6z"/>
<path d="M4987 1839 c7 -7 15 -10 18 -7 3 3 -2 9 -12 12 -14 6 -15 5 -6 -5z"/>
<path d="M5416 1833 c-6 -14 -5 -15 5 -6 7 7 10 15 7 18 -3 3 -9 -2 -12 -12z"/>
<path d="M5446 1838 c3 -5 10 -6 15 -3 13 9 11 12 -6 12 -8 0 -12 -4 -9 -9z"/>
<path d="M6190 1838 c0 -3 9 -6 20 -5 11 1 20 5 20 9 0 3 -9 6 -20 5 -11 -1
-20 -5 -20 -9z"/>
<path d="M6330 1840 c-8 -5 -10 -10 -5 -10 6 0 17 5 25 10 8 5 11 10 5 10 -5
0 -17 -5 -25 -10z"/>
<path d="M6399 1848 c-6 -21 -5 -37 2 -32 5 3 7 9 4 14 -3 4 1 11 7 13 10 4
10 6 1 6 -7 1 -13 0 -14 -1z"/>
<path d="M6461 1833 c0 -11 3 -13 6 -5 2 6 10 9 15 6 7 -4 8 -2 4 4 -11 18
-26 14 -25 -5z"/>
<path d="M6666 1841 c-3 -5 0 -11 7 -14 8 -3 14 1 14 9 0 16 -13 19 -21 5z"/>
<path d="M6755 1840 c3 -5 11 -10 16 -10 6 0 7 5 4 10 -3 6 -11 10 -16 10 -6
0 -7 -4 -4 -10z"/>
<path d="M6837 1835 c3 -10 1 -15 -7 -13 -7 2 -15 -4 -17 -12 -3 -10 -2 -11 4
-4 4 6 16 10 25 8 10 -1 21 3 25 8 3 7 1 8 -5 4 -7 -4 -12 -1 -12 8 0 9 -4 16
-10 16 -5 0 -7 -7 -3 -15z"/>
<path d="M6910 1835 c0 -8 2 -15 4 -15 2 0 6 7 10 15 3 8 1 15 -4 15 -6 0 -10
-7 -10 -15z"/>
<path d="M8555 1840 c3 -5 8 -10 11 -10 2 0 4 5 4 10 0 6 -5 10 -11 10 -5 0
-7 -4 -4 -10z"/>
<path d="M8971 1829 c12 -23 24 -25 15 -4 -6 17 9 21 17 5 3 -6 4 -5 3 2 -1 7
-12 14 -24 14 -18 1 -20 -2 -11 -17z"/>
<path d="M9037 1844 c-11 -11 -8 -24 5 -21 7 1 12 -3 13 -10 0 -6 3 -14 7 -18
9 -10 4 17 -8 38 -6 10 -13 14 -17 11z"/>
<path d="M9490 1840 c0 -5 5 -10 10 -10 6 0 10 5 10 10 0 6 -4 10 -10 10 -5 0
-10 -4 -10 -10z"/>
<path d="M9901 1834 c0 -11 3 -14 6 -6 3 7 2 16 -1 19 -3 4 -6 -2 -5 -13z"/>
<path d="M9935 1839 c-4 -6 -4 -13 -1 -16 3 -4 6 -1 6 6 0 7 5 9 10 6 6 -3 10
-1 10 4 0 14 -17 14 -25 0z"/>
<path d="M10335 1841 c-3 -5 -2 -12 3 -15 5 -3 9 1 9 9 0 17 -3 19 -12 6z"/>
<path d="M10513 1835 c0 -8 4 -12 9 -9 5 3 6 10 3 15 -9 13 -12 11 -12 -6z"/>
<path d="M10810 1841 c0 -6 4 -13 10 -16 6 -3 7 1 4 9 -7 18 -14 21 -14 7z"/>
<path d="M11236 1833 c-6 -14 -5 -15 5 -6 7 7 10 15 7 18 -3 3 -9 -2 -12 -12z"/>
<path d="M5633 1827 c0 -8 6 -14 14 -14 9 0 10 4 2 14 -6 7 -12 13 -14 13 -1
0 -2 -6 -2 -13z"/>
<path d="M5996 1831 c-3 -5 1 -11 9 -14 9 -4 12 -1 8 9 -6 16 -10 17 -17 5z"/>
<path d="M6706 1832 c-3 -5 1 -9 9 -9 8 0 15 4 15 9 0 4 -4 8 -9 8 -6 0 -12
-4 -15 -8z"/>
<path d="M7510 1830 c0 -5 5 -10 10 -10 6 0 10 5 10 10 0 6 -4 10 -10 10 -5 0
-10 -4 -10 -10z"/>
<path d="M10215 1830 c-3 -6 1 -7 9 -4 18 7 21 14 7 14 -6 0 -13 -4 -16 -10z"/>
<path d="M5135 1820 c3 -5 8 -10 11 -10 2 0 4 5 4 10 0 6 -5 10 -11 10 -5 0
-7 -4 -4 -10z"/>
<path d="M5313 1815 c0 -8 4 -12 9 -9 5 3 6 10 3 15 -9 13 -12 11 -12 -6z"/>
<path d="M5940 1824 c0 -1 8 -8 17 -15 9 -8 14 -9 10 -2 -4 6 -1 13 5 16 7 3
3 4 -9 4 -13 -1 -23 -2 -23 -3z"/>
<path d="M6162 1817 c-8 -9 -6 -16 7 -24 14 -9 18 -8 18 3 0 7 -5 10 -10 7 -6
-4 -8 0 -4 10 8 20 3 22 -11 4z"/>
<path d="M6499 1828 c0 -2 -2 -13 -3 -26 -3 -21 -2 -21 18 -5 12 10 23 20 26
22 3 2 -6 0 -19 -4 -16 -5 -21 -4 -17 4 4 6 5 11 2 11 -3 0 -6 -1 -7 -2z"/>
<path d="M6615 1821 c6 -10 2 -12 -16 -6 -13 4 -22 6 -19 4 3 -2 14 -12 26
-22 20 -16 21 -16 19 3 -1 11 -5 23 -10 27 -4 5 -5 2 0 -6z"/>
<path d="M6936 1817 c3 -10 9 -15 12 -12 3 3 0 11 -7 18 -10 9 -11 8 -5 -6z"/>
<path d="M7430 1821 c0 -6 4 -13 10 -16 6 -3 7 1 4 9 -7 18 -14 21 -14 7z"/>
<path d="M8190 1823 c0 -6 8 -17 18 -24 16 -13 16 -13 2 6 -8 11 -16 22 -17
24 -2 2 -3 0 -3 -6z"/>
<path d="M8292 1818 c-7 -7 -12 -16 -12 -21 0 -5 7 -1 16 8 9 9 14 18 12 20
-2 3 -10 -1 -16 -7z"/>
<path d="M8470 1820 c0 -5 5 -10 10 -10 6 0 10 5 10 10 0 6 -4 10 -10 10 -5 0
-10 -4 -10 -10z"/>
<path d="M8720 1819 c-12 -9 -12 -10 4 -5 13 4 17 2 13 -7 -3 -8 1 -14 8 -14
10 0 11 5 4 19 -11 21 -10 21 -29 7z"/>
<path d="M9123 1823 c-7 -3 -13 -9 -13 -15 0 -6 7 -4 17 3 15 12 16 12 9 -6
-6 -16 -5 -18 5 -7 15 14 1 32 -18 25z"/>
<path d="M9254 1819 c-3 -6 -3 -13 0 -16 3 -4 6 0 6 7 0 9 6 8 20 -5 17 -16
20 -16 15 -3 -8 21 -32 30 -41 17z"/>
<path d="M9470 1820 c0 -5 5 -10 11 -10 5 0 7 5 4 10 -3 6 -8 10 -11 10 -2 0
-4 -4 -4 -10z"/>
<path d="M9512 1821 c-11 -7 -10 -9 3 -14 11 -5 14 -3 9 5 -5 8 -2 9 10 5 10
-4 15 -3 11 3 -7 12 -16 12 -33 1z"/>
<path d="M9643 1802 c-15 -20 -17 -29 -8 -29 8 0 13 3 12 6 -1 3 4 16 11 29
17 31 10 28 -15 -6z"/>
<path d="M9719 1823 c-6 -36 -4 -50 7 -50 10 0 11 4 4 12 -6 7 -8 20 -4 29 3
9 3 16 0 16 -3 0 -7 -3 -7 -7z"/>
<path d="M9799 1828 c-6 -22 -5 -38 3 -38 6 0 7 7 4 16 -5 12 -2 15 9 10 9 -3
13 -2 10 4 -5 9 -24 14 -26 8z"/>
<path d="M10039 1828 c-5 -18 -6 -38 -1 -34 7 8 12 36 6 36 -2 0 -4 -1 -5 -2z"/>
<path d="M10239 1813 c-13 -16 -12 -17 4 -4 16 13 21 21 13 21 -2 0 -10 -8
-17 -17z"/>
<path d="M10470 1826 c0 -2 7 -7 16 -10 8 -3 12 -2 9 4 -6 10 -25 14 -25 6z"/>
<path d="M10755 1821 c-3 -5 -2 -12 3 -15 5 -3 9 1 9 9 0 17 -3 19 -12 6z"/>
<path d="M10975 1820 c3 -5 8 -10 11 -10 2 0 4 5 4 10 0 6 -5 10 -11 10 -5 0
-7 -4 -4 -10z"/>
<path d="M5893 1807 c0 -8 6 -14 14 -14 9 0 10 4 2 14 -6 7 -12 13 -14 13 -1
0 -2 -6 -2 -13z"/>
<path d="M6074 1795 c1 -14 8 -30 16 -37 12 -11 12 -10 3 2 -6 8 -9 23 -8 32
2 10 0 20 -4 23 -4 2 -7 -7 -7 -20z"/>
<path d="M6221 1798 c-14 -23 -14 -23 8 -4 22 20 25 26 13 26 -4 0 -13 -10
-21 -22z"/>
<path d="M6435 1810 c-4 -6 -10 -8 -15 -5 -5 3 -11 1 -14 -4 -8 -13 22 -7 36
7 7 7 9 12 6 12 -4 0 -10 -5 -13 -10z"/>
<path d="M7831 1793 c-10 -26 -10 -27 4 -9 8 11 15 23 15 28 0 15 -7 8 -19
-19z"/>
<path d="M8121 1813 c-1 -17 16 -25 25 -12 4 7 3 9 -4 5 -5 -3 -13 0 -15 6 -4
9 -6 10 -6 1z"/>
<path d="M8361 1804 c0 -11 3 -14 6 -6 3 7 2 16 -1 19 -3 4 -6 -2 -5 -13z"/>
<path d="M8630 1810 c0 -6 7 -10 15 -10 8 0 15 2 15 4 0 2 -7 6 -15 10 -8 3
-15 1 -15 -4z"/>
<path d="M8686 1803 c-4 -9 -2 -21 4 -27 8 -8 9 -6 4 8 -5 13 -4 17 4 12 8 -5
10 -2 6 8 -8 20 -10 20 -18 -1z"/>
<path d="M8831 1804 c0 -11 3 -14 6 -6 3 7 2 16 -1 19 -3 4 -6 -2 -5 -13z"/>
<path d="M9081 1804 c0 -11 3 -14 6 -6 3 7 2 16 -1 19 -3 4 -6 -2 -5 -13z"/>
<path d="M9310 1809 c0 -5 5 -7 10 -4 6 3 10 8 10 11 0 2 -4 4 -10 4 -5 0 -10
-5 -10 -11z"/>
<path d="M9347 1808 c-3 -8 5 -14 20 -14 13 -1 23 -1 21 0 -2 1 -10 7 -19 14
-13 10 -18 10 -22 0z"/>
<path d="M10171 1807 c-8 -10 -7 -14 2 -14 8 0 14 6 14 14 0 7 -1 13 -2 13 -2
0 -8 -6 -14 -13z"/>
<path d="M5815 1799 c-3 -4 2 -6 10 -5 21 3 28 13 10 13 -9 0 -18 -4 -20 -8z"/>
<path d="M5930 1801 c0 -6 4 -13 10 -16 6 -3 7 1 4 9 -7 18 -14 21 -14 7z"/>
<path d="M5979 1793 c-12 -16 -12 -17 2 -6 9 7 20 9 24 5 5 -4 5 -1 1 6 -9 16
-11 15 -27 -5z"/>
<path d="M6256 1793 c-6 -14 -5 -15 5 -6 7 7 10 15 7 18 -3 3 -9 -2 -12 -12z"/>
<path d="M6360 1800 c8 -5 20 -10 25 -10 6 0 3 5 -5 10 -8 5 -19 10 -25 10 -5
0 -3 -5 5 -10z"/>
<path d="M6657 1797 c-3 -7 3 -13 14 -13 13 0 15 3 7 13 -6 7 -12 13 -13 13
-2 0 -5 -6 -8 -13z"/>
<path d="M6762 1797 c-8 -10 -6 -13 7 -13 11 0 17 6 14 13 -3 7 -6 13 -8 13
-1 0 -7 -6 -13 -13z"/>
<path d="M6858 1799 c-6 -4 4 -6 21 -5 17 0 31 4 31 8 0 8 -37 6 -52 -3z"/>
<path d="M6994 1788 l-19 -23 25 20 c14 11 27 21 29 22 2 2 0 3 -6 3 -5 0 -18
-10 -29 -22z"/>
<path d="M7265 1799 c-4 -6 -4 -13 -1 -16 3 -4 6 -1 6 6 0 8 6 11 16 7 8 -3
12 -2 9 4 -8 13 -22 13 -30 -1z"/>
<path d="M7330 1800 c0 -5 5 -10 10 -10 6 0 10 5 10 10 0 6 -4 10 -10 10 -5 0
-10 -4 -10 -10z"/>
<path d="M7519 1793 c-13 -17 -13 -17 6 -3 11 8 22 16 24 17 2 2 0 3 -6 3 -6
0 -17 -8 -24 -17z"/>
<path d="M7650 1806 c0 -2 7 -7 16 -10 8 -3 12 -2 9 4 -6 10 -25 14 -25 6z"/>
<path d="M7867 1799 c7 -9 10 -19 6 -22 -3 -4 -1 -7 5 -7 17 0 15 16 -5 31
-16 12 -17 12 -6 -2z"/>
<path d="M7940 1800 c8 -5 22 -9 30 -9 10 0 8 3 -5 9 -27 12 -43 12 -25 0z"/>
<path d="M8036 1802 c-3 -4 4 -9 15 -9 23 -2 25 3 4 10 -8 4 -16 3 -19 -1z"/>
<path d="M8550 1802 c0 -6 9 -12 20 -15 11 -3 20 -3 20 -1 0 2 -9 8 -20 14
-11 6 -20 7 -20 2z"/>
<path d="M8890 1800 c0 -5 5 -10 10 -10 6 0 10 5 10 10 0 6 -4 10 -10 10 -5 0
-10 -4 -10 -10z"/>
<path d="M8947 1804 c-4 -4 -7 -12 -7 -18 0 -6 5 -4 10 4 9 13 11 13 21 0 9
-12 10 -12 7 -1 -5 17 -21 25 -31 15z"/>
<path d="M9000 1800 c-12 -7 -10 -9 8 -7 12 0 22 5 22 9 0 11 -12 10 -30 -2z"/>
<path d="M9157 1796 c-3 -8 0 -17 7 -19 10 -4 12 1 9 14 -6 23 -9 24 -16 5z"/>
<path d="M9201 1792 c-7 -14 -6 -19 4 -19 7 0 11 7 7 15 -4 11 -1 13 8 7 9 -5
11 -4 6 3 -10 16 -14 15 -25 -6z"/>
<path d="M9436 1793 c-6 -14 -5 -15 5 -6 7 7 10 15 7 18 -3 3 -9 -2 -12 -12z"/>
<path d="M9747 1799 c7 -7 15 -10 18 -7 3 3 -2 9 -12 12 -14 6 -15 5 -6 -5z"/>
<path d="M9871 1807 c2 -2 11 -8 20 -15 12 -9 16 -9 16 1 0 7 -9 14 -20 14
-11 1 -18 1 -16 0z"/>
<path d="M10059 1793 c-13 -16 -12 -17 4 -4 16 13 21 21 13 21 -2 0 -10 -8
-17 -17z"/>
<path d="M10113 1790 c1 -21 10 -18 13 5 1 8 -2 15 -6 15 -5 0 -8 -9 -7 -20z"/>
<path d="M10295 1800 c-2 -3 9 -6 25 -6 17 0 27 2 25 5 -8 7 -45 9 -50 1z"/>
<path d="M10596 1798 c3 -5 10 -6 15 -3 13 9 11 12 -6 12 -8 0 -12 -4 -9 -9z"/>
<path d="M10814 1796 c1 -8 5 -18 8 -22 4 -3 5 1 4 10 -1 8 -5 18 -8 22 -4 3
-5 -1 -4 -10z"/>
<path d="M5375 1791 c-3 -5 -2 -12 3 -15 5 -3 9 1 9 9 0 17 -3 19 -12 6z"/>
<path d="M5615 1791 c-3 -5 -2 -12 3 -15 5 -3 9 1 9 9 0 17 -3 19 -12 6z"/>
<path d="M7470 1790 c8 -5 20 -10 25 -10 6 0 3 5 -5 10 -8 5 -19 10 -25 10 -5
0 -3 -5 5 -10z"/>
<path d="M7544 1784 c-18 -14 -18 -14 6 -3 31 14 36 19 24 19 -6 0 -19 -7 -30
-16z"/>
<path d="M7621 1796 c2 -2 15 -9 29 -15 24 -11 24 -11 6 3 -16 13 -49 24 -35
12z"/>
<path d="M8226 1783 c-6 -14 -5 -15 5 -6 7 7 10 15 7 18 -3 3 -9 -2 -12 -12z"/>
<path d="M8314 1786 c1 -8 5 -18 8 -22 4 -3 5 1 4 10 -1 8 -5 18 -8 22 -4 3
-5 -1 -4 -10z"/>
<path d="M8475 1790 c-3 -5 -3 -10 1 -10 4 0 -1 -10 -12 -22 -19 -23 -19 -23
2 -5 11 9 21 24 21 32 0 18 -3 19 -12 5z"/>
<path d="M9466 1785 c-11 -8 -15 -15 -9 -15 6 0 16 7 23 15 16 19 11 19 -14 0z"/>
<path d="M5190 1785 c0 -7 30 -13 34 -7 3 4 -4 9 -15 9 -10 1 -19 0 -19 -2z"/>
<path d="M5450 1780 c0 -5 5 -10 11 -10 5 0 7 5 4 10 -3 6 -8 10 -11 10 -2 0
-4 -4 -4 -10z"/>
<path d="M5495 1780 c3 -5 8 -10 11 -10 2 0 4 5 4 10 0 6 -5 10 -11 10 -5 0
-7 -4 -4 -10z"/>
<path d="M5535 1780 c-3 -5 -1 -10 4 -10 6 0 11 5 11 10 0 6 -2 10 -4 10 -3 0
-8 -4 -11 -10z"/>
<path d="M5570 1779 c0 -5 5 -7 10 -4 6 3 10 8 10 11 0 2 -4 4 -10 4 -5 0 -10
-5 -10 -11z"/>
<path d="M6110 1776 c7 -7 13 -7 20 0 6 6 3 10 -10 10 -13 0 -16 -4 -10 -10z"/>
<path d="M6708 1783 c6 -2 18 -2 25 0 6 3 1 5 -13 5 -14 0 -19 -2 -12 -5z"/>
<path d="M7030 1775 c5 -7 6 -16 2 -21 -4 -5 -3 -6 2 -2 5 4 16 2 25 -4 12
-10 12 -7 -2 8 -9 11 -15 23 -12 26 3 2 -2 5 -10 5 -10 0 -12 -4 -5 -12z"/>
<path d="M7068 1783 c7 -3 16 -2 19 1 4 3 -2 6 -13 5 -11 0 -14 -3 -6 -6z"/>
<path d="M7430 1782 c0 -12 22 -32 35 -32 5 0 2 5 -8 11 -9 6 -15 14 -12 20 4
5 1 9 -4 9 -6 0 -11 -4 -11 -8z"/>
<path d="M7593 1770 c1 -21 10 -18 13 5 1 8 -2 15 -6 15 -5 0 -8 -9 -7 -20z"/>
<path d="M8075 1781 c-3 -5 -2 -12 3 -15 5 -3 9 1 9 9 0 17 -3 19 -12 6z"/>
<path d="M8398 1768 c2 -10 6 -18 7 -18 1 0 5 8 7 18 3 11 0 19 -7 19 -7 0
-10 -8 -7 -19z"/>
<path d="M8524 1775 c-4 -8 -11 -12 -17 -8 -5 3 -7 1 -4 -5 8 -12 32 -10 44 3
5 4 2 5 -6 0 -11 -6 -13 -4 -8 8 3 10 4 17 1 17 -2 0 -7 -7 -10 -15z"/>
<path d="M8596 1773 c-6 -14 -5 -15 5 -6 7 7 10 15 7 18 -3 3 -9 -2 -12 -12z"/>
<path d="M8815 1783 c3 -3 -2 -14 -10 -23 -13 -14 -12 -16 4 -16 17 0 23 29 8
41 -4 3 -5 2 -2 -2z"/>
<path d="M8915 1781 c-3 -5 -2 -12 3 -15 5 -3 9 1 9 9 0 17 -3 19 -12 6z"/>
<path d="M9039 1783 c-1 -5 -1 -12 0 -17 1 -4 -4 -16 -11 -25 -12 -14 -11 -14
4 -3 9 7 16 22 15 33 -1 19 -6 26 -8 12z"/>
<path d="M9986 1778 c3 -4 9 -8 15 -8 5 0 9 4 9 8 0 5 -7 9 -15 9 -8 0 -12 -4
-9 -9z"/>
<path d="M10530 1779 c0 -5 5 -7 10 -4 6 3 10 8 10 11 0 2 -4 4 -10 4 -5 0
-10 -5 -10 -11z"/>
<path d="M10876 1773 c-6 -14 -5 -15 5 -6 7 7 10 15 7 18 -3 3 -9 -2 -12 -12z"/>
<path d="M6313 1766 c0 -15 22 -15 34 0 4 5 4 6 -1 2 -5 -4 -14 -3 -21 2 -8 7
-12 5 -12 -4z"/>
<path d="M6899 1778 c-5 -18 -6 -38 -1 -34 7 8 12 36 6 36 -2 0 -4 -1 -5 -2z"/>
<path d="M7095 1770 c-4 -6 -11 -7 -17 -4 -7 4 -8 2 -4 -5 6 -9 11 -9 22 0 14
11 18 19 10 19 -3 0 -8 -5 -11 -10z"/>
<path d="M7290 1766 c0 -8 4 -17 9 -20 5 -4 7 3 4 14 -6 23 -13 26 -13 6z"/>
<path d="M7748 1773 c6 -2 18 -2 25 0 6 3 1 5 -13 5 -14 0 -19 -2 -12 -5z"/>
<path d="M8101 1764 c0 -11 3 -14 6 -6 3 7 2 16 -1 19 -3 4 -6 -2 -5 -13z"/>
<path d="M8133 1763 c1 -14 5 -19 12 -14 5 4 22 7 36 6 15 -1 26 3 26 11 0 7
-5 10 -11 6 -17 -10 -50 -9 -58 3 -4 5 -6 0 -5 -12z"/>
<path d="M8376 1767 c3 -10 9 -15 12 -12 3 3 0 11 -7 18 -10 9 -11 8 -5 -6z"/>
<path d="M8748 1773 c6 -2 9 -10 6 -15 -4 -7 -2 -8 5 -4 13 9 5 26 -12 25 -9
0 -8 -2 1 -6z"/>
<path d="M8853 1763 c1 -15 5 -19 13 -13 6 6 15 6 19 2 5 -4 5 -1 1 6 -4 7
-11 10 -16 7 -4 -3 -10 1 -13 7 -3 7 -4 3 -4 -9z"/>
<path d="M9061 1764 c0 -11 3 -14 6 -6 3 7 2 16 -1 19 -3 4 -6 -2 -5 -13z"/>
<path d="M9275 1770 c-4 -6 -11 -7 -17 -4 -7 4 -8 2 -4 -5 6 -9 11 -9 22 0 14
11 18 19 10 19 -3 0 -8 -5 -11 -10z"/>
<path d="M9576 1767 c3 -10 9 -15 12 -12 3 3 0 11 -7 18 -10 9 -11 8 -5 -6z"/>
<path d="M10313 1765 c0 -8 4 -12 9 -9 5 3 6 10 3 15 -9 13 -12 11 -12 -6z"/>
<path d="M6215 1760 c-4 -6 -1 -9 7 -8 7 2 12 -3 10 -10 -1 -8 2 -11 8 -7 8 5
7 11 -1 21 -14 17 -16 17 -24 4z"/>
<path d="M6473 1751 c0 -11 5 -18 9 -15 4 3 5 11 1 19 -7 21 -12 19 -10 -4z"/>
<path d="M6555 1760 c-3 -5 -1 -10 4 -10 6 0 11 5 11 10 0 6 -2 10 -4 10 -3 0
-8 -4 -11 -10z"/>
<path d="M6676 1762 c-3 -5 1 -9 9 -9 8 0 12 4 9 9 -3 4 -7 8 -9 8 -2 0 -6 -4
-9 -8z"/>
<path d="M6746 1762 c-3 -5 1 -9 9 -9 8 0 12 4 9 9 -3 4 -7 8 -9 8 -2 0 -6 -4
-9 -8z"/>
<path d="M7154 1758 c-4 -7 -4 -10 1 -6 4 4 15 2 24 -5 14 -11 14 -10 2 6 -16
20 -18 21 -27 5z"/>
<path d="M7266 1757 c3 -10 9 -15 12 -12 3 3 0 11 -7 18 -10 9 -11 8 -5 -6z"/>
<path d="M7390 1760 c0 -5 5 -10 11 -10 5 0 7 5 4 10 -3 6 -8 10 -11 10 -2 0
-4 -4 -4 -10z"/>
<path d="M7490 1766 c0 -2 7 -7 16 -10 8 -3 12 -2 9 4 -6 10 -25 14 -25 6z"/>
<path d="M7550 1763 c0 -6 8 -17 18 -24 16 -13 16 -13 2 6 -8 11 -16 22 -17
24 -2 2 -3 0 -3 -6z"/>
<path d="M7846 1762 c-3 -5 1 -9 9 -9 8 0 12 4 9 9 -3 4 -7 8 -9 8 -2 0 -6 -4
-9 -8z"/>
<path d="M7936 1753 c-6 -14 -5 -15 5 -6 7 7 10 15 7 18 -3 3 -9 -2 -12 -12z"/>
<path d="M8650 1762 c0 -5 7 -9 15 -9 8 0 12 4 9 9 -3 4 -9 8 -15 8 -5 0 -9
-4 -9 -8z"/>
<path d="M8944 1762 c4 -3 14 -7 22 -8 9 -1 13 0 10 4 -4 3 -14 7 -22 8 -9 1
-13 0 -10 -4z"/>
<path d="M9315 1760 c3 -5 8 -10 11 -10 2 0 4 5 4 10 0 6 -5 10 -11 10 -5 0
-7 -4 -4 -10z"/>
<path d="M9546 1762 c-3 -5 1 -9 9 -9 8 0 12 4 9 9 -3 4 -7 8 -9 8 -2 0 -6 -4
-9 -8z"/>
<path d="M9936 1758 c3 -5 10 -6 15 -3 13 9 11 12 -6 12 -8 0 -12 -4 -9 -9z"/>
<path d="M10030 1760 c0 -5 5 -10 11 -10 5 0 7 5 4 10 -3 6 -8 10 -11 10 -2 0
-4 -4 -4 -10z"/>
<path d="M10070 1756 c7 -7 13 -7 20 0 6 6 3 10 -10 10 -13 0 -16 -4 -10 -10z"/>
<path d="M10670 1761 c0 -6 4 -12 8 -15 5 -3 9 1 9 9 0 8 -4 15 -9 15 -4 0 -8
-4 -8 -9z"/>
<path d="M11145 1760 c-3 -6 1 -7 9 -4 18 7 21 14 7 14 -6 0 -13 -4 -16 -10z"/>
<path d="M5573 1745 c0 -8 4 -12 9 -9 5 3 6 10 3 15 -9 13 -12 11 -12 -6z"/>
<path d="M7110 1756 c0 -2 8 -10 18 -17 15 -13 16 -12 3 4 -13 16 -21 21 -21
13z"/>
<path d="M7230 1756 c0 -2 8 -10 18 -17 15 -13 16 -12 3 4 -13 16 -21 21 -21
13z"/>
<path d="M8349 1743 c-13 -16 -12 -17 4 -4 16 13 21 21 13 21 -2 0 -10 -8 -17
-17z"/>
<path d="M10396 1747 c3 -10 9 -15 12 -12 3 3 0 11 -7 18 -10 9 -11 8 -5 -6z"/>
<path d="M5475 1740 c-3 -5 -1 -10 4 -10 6 0 11 5 11 10 0 6 -2 10 -4 10 -3 0
-8 -4 -11 -10z"/>
<path d="M5690 1745 c0 -7 30 -13 34 -7 3 4 -4 9 -15 9 -10 1 -19 0 -19 -2z"/>
<path d="M6010 1739 c0 -5 5 -7 10 -4 6 3 10 8 10 11 0 2 -4 4 -10 4 -5 0 -10
-5 -10 -11z"/>
<path d="M6590 1739 c0 -5 5 -7 10 -4 6 3 10 8 10 11 0 2 -4 4 -10 4 -5 0 -10
-5 -10 -11z"/>
<path d="M6626 1742 c-3 -5 1 -9 9 -9 8 0 15 4 15 9 0 4 -4 8 -9 8 -6 0 -12
-4 -15 -8z"/>
<path d="M6790 1742 c0 -5 7 -9 15 -9 8 0 12 4 9 9 -3 4 -9 8 -15 8 -5 0 -9
-4 -9 -8z"/>
<path d="M7600 1740 c-9 -6 -10 -10 -3 -10 6 0 15 5 18 10 8 12 4 12 -15 0z"/>
<path d="M7708 1743 c10 -4 10 -8 0 -21 -9 -12 -6 -11 10 2 12 11 22 20 22 20
0 1 -10 2 -22 3 -13 0 -17 -1 -10 -4z"/>
<path d="M7797 1728 c19 -21 31 -25 14 -5 -6 8 -9 16 -6 19 3 2 -2 5 -10 5
-13 0 -13 -3 2 -19z"/>
<path d="M7959 1733 c-13 -16 -12 -17 4 -4 16 13 21 21 13 21 -2 0 -10 -8 -17
-17z"/>
<path d="M8087 1739 c7 -7 15 -10 18 -7 3 3 -2 9 -12 12 -14 6 -15 5 -6 -5z"/>
<path d="M8580 1740 c-9 -6 -10 -10 -3 -10 6 0 15 5 18 10 8 12 4 12 -15 0z"/>
<path d="M8761 1736 c-9 -11 -9 -16 1 -22 7 -4 10 -4 6 1 -4 4 -3 14 3 22 6 7
9 13 6 13 -2 0 -10 -6 -16 -14z"/>
<path d="M9190 1736 c7 -7 13 -7 20 0 6 6 3 10 -10 10 -13 0 -16 -4 -10 -10z"/>
<path d="M9239 1748 c-6 -20 -6 -39 0 -42 4 -3 7 6 7 20 0 20 -4 32 -7 22z"/>
<path d="M10335 1740 c-3 -5 -1 -10 4 -10 6 0 11 5 11 10 0 6 -2 10 -4 10 -3
0 -8 -4 -11 -10z"/>
<path d="M10454 1742 c4 -3 14 -7 22 -8 9 -1 13 0 10 4 -4 3 -14 7 -22 8 -9 1
-13 0 -10 -4z"/>
<path d="M10515 1740 c-3 -5 -1 -10 4 -10 6 0 11 5 11 10 0 6 -2 10 -4 10 -3
0 -8 -4 -11 -10z"/>
<path d="M7533 1727 c0 -8 6 -14 14 -14 9 0 10 4 2 14 -6 7 -12 13 -14 13 -1
0 -2 -6 -2 -13z"/>
<path d="M7653 1726 c0 -15 22 -15 34 0 4 5 4 6 -1 2 -5 -4 -14 -3 -21 2 -8 7
-12 5 -12 -4z"/>
<path d="M7846 1725 c-11 -8 -15 -15 -9 -15 6 0 16 7 23 15 16 19 11 19 -14 0z"/>
<path d="M8175 1729 c-4 -6 -5 -12 -2 -15 2 -3 7 2 10 11 7 17 1 20 -8 4z"/>
<path d="M8255 1729 c-4 -6 -5 -12 -2 -15 2 -3 7 2 10 11 7 17 1 20 -8 4z"/>
<path d="M8985 1720 c10 -11 20 -20 23 -20 3 0 -3 9 -13 20 -10 11 -20 20 -23
20 -3 0 3 -9 13 -20z"/>
<path d="M9055 1729 c-4 -6 -5 -12 -2 -15 2 -3 7 2 10 11 7 17 1 20 -8 4z"/>
<path d="M9834 1720 c0 -13 4 -16 10 -10 7 7 7 13 0 20 -6 6 -10 3 -10 -10z"/>
<path d="M5315 1721 c-3 -5 -2 -12 3 -15 5 -3 9 1 9 9 0 17 -3 19 -12 6z"/>
<path d="M5746 1718 c3 -5 10 -6 15 -3 13 9 11 12 -6 12 -8 0 -12 -4 -9 -9z"/>
<path d="M5936 1722 c-3 -5 1 -9 9 -9 8 0 12 4 9 9 -3 4 -7 8 -9 8 -2 0 -6 -4
-9 -8z"/>
<path d="M6545 1720 c-3 -6 1 -7 9 -4 18 7 21 14 7 14 -6 0 -13 -4 -16 -10z"/>
<path d="M6906 1718 c3 -4 9 -8 15 -8 5 0 9 4 9 8 0 5 -7 9 -15 9 -8 0 -12 -4
-9 -9z"/>
<path d="M6946 1718 c3 -5 10 -6 15 -3 13 9 11 12 -6 12 -8 0 -12 -4 -9 -9z"/>
<path d="M7060 1726 c0 -2 8 -10 18 -17 15 -13 16 -12 3 4 -13 16 -21 21 -21
13z"/>
<path d="M7216 1722 c-3 -5 1 -9 9 -9 8 0 12 4 9 9 -3 4 -7 8 -9 8 -2 0 -6 -4
-9 -8z"/>
<path d="M7746 1722 c-2 -4 4 -8 14 -8 10 0 16 4 14 8 -3 4 -9 8 -14 8 -5 0
-11 -4 -14 -8z"/>
<path d="M8860 1726 c0 -2 8 -10 18 -17 15 -13 16 -12 3 4 -13 16 -21 21 -21
13z"/>
<path d="M9155 1720 c-3 -5 -1 -10 4 -10 6 0 11 5 11 10 0 6 -2 10 -4 10 -3 0
-8 -4 -11 -10z"/>
<path d="M10113 1715 c0 -8 4 -12 9 -9 5 3 6 10 3 15 -9 13 -12 11 -12 -6z"/>
<path d="M6395 1710 c-4 -6 -11 -7 -17 -4 -7 4 -8 2 -4 -5 6 -9 11 -9 22 0 14
11 18 19 10 19 -3 0 -8 -5 -11 -10z"/>
<path d="M6453 1705 c0 -8 4 -12 9 -9 5 3 6 10 3 15 -9 13 -12 11 -12 -6z"/>
<path d="M7973 1705 c0 -8 4 -12 9 -9 5 3 6 10 3 15 -9 13 -12 11 -12 -6z"/>
<path d="M8015 1711 c-3 -5 -2 -12 3 -15 5 -3 9 1 9 9 0 17 -3 19 -12 6z"/>
<path d="M6133 1689 c-2 -23 3 -25 10 -4 4 8 3 16 -1 19 -4 3 -9 -4 -9 -15z"/>
<path d="M6730 1699 c0 -5 5 -7 10 -4 6 3 10 8 10 11 0 2 -4 4 -10 4 -5 0 -10
-5 -10 -11z"/>
<path d="M6850 1699 c0 -5 5 -7 10 -4 6 3 10 8 10 11 0 2 -4 4 -10 4 -5 0 -10
-5 -10 -11z"/>
<path d="M7240 1700 c-9 -6 -10 -10 -3 -10 6 0 15 5 18 10 8 12 4 12 -15 0z"/>
<path d="M7513 1695 c0 -8 4 -12 9 -9 5 3 6 10 3 15 -9 13 -12 11 -12 -6z"/>
<path d="M9375 1700 c3 -5 8 -10 11 -10 2 0 4 5 4 10 0 6 -5 10 -11 10 -5 0
-7 -4 -4 -10z"/>
<path d="M9415 1700 c-3 -5 -1 -10 4 -10 6 0 11 5 11 10 0 6 -2 10 -4 10 -3 0
-8 -4 -11 -10z"/>
<path d="M9490 1700 c0 -5 5 -10 11 -10 5 0 7 5 4 10 -3 6 -8 10 -11 10 -2 0
-4 -4 -4 -10z"/>
<path d="M9575 1700 c-3 -5 -1 -10 4 -10 6 0 11 5 11 10 0 6 -2 10 -4 10 -3 0
-8 -4 -11 -10z"/>
<path d="M6955 1691 c-3 -5 -2 -12 3 -15 5 -3 9 1 9 9 0 17 -3 19 -12 6z"/>
<path d="M7830 1696 c0 -2 8 -10 18 -17 15 -13 16 -12 3 4 -13 16 -21 21 -21
13z"/>
<path d="M8353 1675 c0 -8 4 -12 9 -9 5 3 6 10 3 15 -9 13 -12 11 -12 -6z"/>
<path d="M8654 1676 c1 -8 5 -18 8 -22 4 -3 5 1 4 10 -1 8 -5 18 -8 22 -4 3
-5 -1 -4 -10z"/>
<path d="M9039 1673 c-13 -16 -12 -17 4 -4 16 13 21 21 13 21 -2 0 -10 -8 -17
-17z"/>
<path d="M9250 1680 c0 -5 5 -10 11 -10 5 0 7 5 4 10 -3 6 -8 10 -11 10 -2 0
-4 -4 -4 -10z"/>
<path d="M9616 1682 c-3 -5 1 -9 9 -9 8 0 12 4 9 9 -3 4 -7 8 -9 8 -2 0 -6 -4
-9 -8z"/>
<path d="M7135 1671 c-3 -5 -2 -12 3 -15 5 -3 9 1 9 9 0 17 -3 19 -12 6z"/>
<path d="M7455 1671 c-3 -5 -2 -12 3 -15 5 -3 9 1 9 9 0 17 -3 19 -12 6z"/>
<path d="M7935 1671 c-3 -5 -2 -12 3 -15 5 -3 9 1 9 9 0 17 -3 19 -12 6z"/>
<path d="M7015 1661 c-3 -5 -2 -12 3 -15 5 -3 9 1 9 9 0 17 -3 19 -12 6z"/>
<path d="M7053 1655 c0 -8 4 -12 9 -9 5 3 6 10 3 15 -9 13 -12 11 -12 -6z"/>
<path d="M7215 1660 c3 -5 8 -10 11 -10 2 0 4 5 4 10 0 6 -5 10 -11 10 -5 0
-7 -4 -4 -10z"/>
<path d="M7536 1658 c3 -4 11 -5 19 -1 21 7 19 12 -4 10 -11 0 -18 -5 -15 -9z"/>
<path d="M7610 1660 c0 -5 5 -10 11 -10 5 0 7 5 4 10 -3 6 -8 10 -11 10 -2 0
-4 -4 -4 -10z"/>
<path d="M8195 1660 c-3 -5 -1 -10 4 -10 6 0 11 5 11 10 0 6 -2 10 -4 10 -3 0
-8 -4 -11 -10z"/>
<path d="M8855 1660 c-3 -5 -1 -10 4 -10 6 0 11 5 11 10 0 6 -2 10 -4 10 -3 0
-8 -4 -11 -10z"/>
<path d="M8916 1658 c3 -4 11 -5 19 -1 21 7 19 12 -4 10 -11 0 -18 -5 -15 -9z"/>
<path d="M9155 1660 c-3 -5 -1 -10 4 -10 6 0 11 5 11 10 0 6 -2 10 -4 10 -3 0
-8 -4 -11 -10z"/>
<path d="M9713 1655 c0 -8 4 -12 9 -9 5 3 6 10 3 15 -9 13 -12 11 -12 -6z"/>
<path d="M8515 1651 c-3 -5 -2 -12 3 -15 5 -3 9 1 9 9 0 17 -3 19 -12 6z"/>
<path d="M10435 1611 c-3 -5 -2 -12 3 -15 5 -3 9 1 9 9 0 17 -3 19 -12 6z"/>
<path d="M8500 1606 c0 -2 8 -10 18 -17 15 -13 16 -12 3 4 -13 16 -21 21 -21
13z"/>
<path d="M9253 1595 c0 -8 4 -12 9 -9 5 3 6 10 3 15 -9 13 -12 11 -12 -6z"/>
<path d="M7713 1565 c0 -8 4 -12 9 -9 5 3 6 10 3 15 -9 13 -12 11 -12 -6z"/>
<path d="M8953 1565 c0 -8 4 -15 9 -15 4 0 8 4 8 9 0 6 -4 12 -8 15 -5 3 -9
-1 -9 -9z"/>
<path d="M7660 1566 c0 -2 8 -10 18 -17 15 -13 16 -12 3 4 -13 16 -21 21 -21
13z"/>
<path d="M7415 1529 c-4 -6 -5 -12 -2 -15 2 -3 7 2 10 11 7 17 1 20 -8 4z"/>
</g>
</svg>
